<svg xmlns="http://www.w3.org/2000/svg" style="display: none;"><symbol id="file-upload" viewBox="0 0 60 60"><title>file-upload</title><path d="M49,38a4,4,0,0,0,4-4V4a4,4,0,0,0-4-4H11A4,4,0,0,0,7,4V34a4,4,0,0,0,4,4H25v4H20a4,4,0,0,0-4,4V56a4,4,0,0,0,4,4H40a4,4,0,0,0,4-4V46a4,4,0,0,0-4-4H35V38ZM11,2H49a2,2,0,0,1,2,2V8H9V4A2,2,0,0,1,11,2Zm0,34a2,2,0,0,1-2-2V10H51V34a2,2,0,0,1-2,2H35V27h1.18A1.808,1.808,0,0,0,37.8,25.99a1.917,1.917,0,0,0-.175-2.019L31.439,15.73a1.834,1.834,0,0,0-2.878,0l-6.185,8.245a1.917,1.917,0,0,0-.171,2.015A1.808,1.808,0,0,0,23.82,27H25v9ZM42,46V56a2,2,0,0,1-2,2H20a2,2,0,0,1-2-2V46a2,2,0,0,1,2-2H40A2,2,0,0,1,42,46ZM27,42V26a1,1,0,0,0-1-1H24.107L30,17.143,35.94,25H34a1,1,0,0,0-1,1V42Z"/><path d="M25.832,48.445a1,1,0,0,0-1.387-.277l-3,2a1,1,0,0,0,0,1.664l3,2a1,1,0,1,0,1.11-1.664L23.8,51l1.752-1.168A1,1,0,0,0,25.832,48.445Z"/><path d="M34.168,53.555a1,1,0,0,0,1.387.277l3-2a1,1,0,0,0,0-1.664l-3-2a1,1,0,0,0-1.11,1.664L36.2,51l-1.752,1.168A1,1,0,0,0,34.168,53.555Z"/><path d="M31.316,47.052a1,1,0,0,0-1.264.632l-2,6a1,1,0,1,0,1.9.632l2-6A1,1,0,0,0,31.316,47.052Z"/><path d="M12,6h1a1,1,0,0,0,0-2H12a1,1,0,0,0,0,2Z"/><path d="M17,6h1a1,1,0,0,0,0-2H17a1,1,0,0,0,0,2Z"/><path d="M22,6h1a1,1,0,0,0,0-2H22a1,1,0,0,0,0,2Z"/><path d="M44,6h4a1,1,0,0,0,0-2H44a1,1,0,0,0,0,2Z"/></symbol><symbol id="wireframe" viewBox="1 0 511.99999 511"><title>wireframe</title><path d="m502 50.5h-153c-5.519531 0-10 4.476562-10 10s4.480469 10 10 10h143v422h-418.140625c-29.699219 0-53.859375-24.160156-53.859375-53.859375 0-23.503906 19.121094-42.628906 42.628906-42.628906 18.398438 0 33.371094 14.972656 33.371094 33.375 0 14.195312-11.550781 25.742187-25.746094 25.742187-10.726562 0-19.457031-8.726562-19.457031-19.457031 0-5.523437-4.476563-10-10-10s-10 4.476563-10 10c0 21.757813 17.699219 39.457031 39.457031 39.457031 25.226563 0 45.746094-20.519531 45.746094-45.742187v-358.886719h151c5.523438 0 10-4.476562 10-10s-4.476562-10-10-10h-151.117188c-1.75-27.863281-24.960937-50-53.253906-50-34.535156 0-62.628906 28.09375-62.628906 62.628906v366.246094 9.265625c0 40.726563 33.132812 73.855469 73.859375 73.855469h428.140625c5.523438 0 10-4.476563 10-10v-441.996094c0-5.523438-4.476562-10-10-10zm-439.371094-30c18.398438 0 33.371094 14.972656 33.371094 33.371094v333.90625c-9.148438-7.351563-20.75-11.765625-33.371094-11.765625-16.457031 0-31.441406 6.390625-42.628906 16.804687v-329.6875c0-23.507812 19.121094-42.628906 42.628906-42.628906zm0 0"/><path d="m50 165.5c-2.628906 0-5.210938 1.066406-7.070312 2.929688-1.859376 1.859374-2.929688 4.441406-2.929688 7.070312 0 2.640625 1.070312 5.210938 2.929688 7.066406 1.859374 1.871094 4.441406 2.933594 7.070312 2.933594s5.210938-1.0625 7.070312-2.933594c1.859376-1.855468 2.929688-4.429687 2.929688-7.066406 0-2.628906-1.070312-5.210938-2.929688-7.070312-1.859374-1.863282-4.441406-2.929688-7.070312-2.929688zm0 0"/><path d="m306.558594 50.308594c-2.632813 0-5.210938 1.070312-7.070313 2.929687-1.863281 1.863281-2.929687 4.441407-2.929687 7.070313 0 2.640625 1.066406 5.210937 2.929687 7.070312 1.859375 1.871094 4.4375 2.929688 7.070313 2.929688 2.628906 0 5.207031-1.058594 7.066406-2.929688 1.859375-1.859375 2.933594-4.429687 2.933594-7.070312 0-2.628906-1.070313-5.207032-2.933594-7.070313-1.859375-1.859375-4.4375-2.929687-7.066406-2.929687zm0 0"/><path d="m50 144.875c5.523438 0 10-4.476562 10-10v-74.375c0-5.523438-4.476562-10-10-10s-10 4.476562-10 10v74.375c0 5.523438 4.476562 10 10 10zm0 0"/><path d="m458 128.625c0-5.519531-4.480469-10-10-10h-280c-5.523438 0-10 4.480469-10 10v128c0 5.523438 4.476562 10 10 10h280c5.519531 0 10-4.476562 10-10zm-20 118h-260v-108h260zm0 0"/><path d="m242 318.5c0-5.523438-4.476562-10-10-10h-64c-5.523438 0-10 4.476562-10 10v64c0 5.519531 4.476562 10 10 10h64c5.523438 0 10-4.480469 10-10zm-20 54h-44v-44h44zm0 0"/><path d="m350 318.5c0-5.523438-4.476562-10-10-10h-64c-5.523438 0-10 4.476562-10 10v64c0 5.519531 4.476562 10 10 10h64c5.523438 0 10-4.480469 10-10zm-20 54h-44v-44h44zm0 0"/><path d="m458 318.5c0-5.523438-4.480469-10-10-10h-64c-5.523438 0-10 4.476562-10 10v64c0 5.519531 4.476562 10 10 10h64c5.519531 0 10-4.480469 10-10zm-20 54h-44v-44h44zm0 0"/><path d="m232 428.5h-64c-5.523438 0-10 4.476562-10 10 0 5.519531 4.476562 10 10 10h64c5.523438 0 10-4.480469 10-10 0-5.523438-4.476562-10-10-10zm0 0"/><path d="m340 428.5h-64c-5.523438 0-10 4.476562-10 10 0 5.519531 4.476562 10 10 10h64c5.523438 0 10-4.480469 10-10 0-5.523438-4.476562-10-10-10zm0 0"/><path d="m448 428.5h-64c-5.523438 0-10 4.476562-10 10 0 5.519531 4.476562 10 10 10h64c5.519531 0 10-4.480469 10-10 0-5.523438-4.480469-10-10-10zm0 0"/></symbol><symbol id="web-design" viewBox="0 0 512.01 512.01"><title>web-design</title><path d="m447.183 66.584h-6.075c11.58-18.853 7.304-44.164-11.281-57.953-20.025-14.856-48.482-10.074-62.457 10.81l-31.546 47.144h-270.997c-22.275 0-40.397 18.122-40.397 40.397v258.274c0 22.275 18.122 40.397 40.397 40.397h156.914l-11.856 49.797h-25.589c-16.677 0-30.245 13.567-30.245 30.244v6.315h-31.545c-5.523 0-10 4.478-10 10s4.477 10 10 10h266.999c5.523 0 10-4.478 10-10s-4.477-10-10-10h-31.545v-6.315c0-16.677-13.568-30.244-30.245-30.244h-25.589l-11.856-49.797h156.914c22.275 0 40.397-18.122 40.397-40.397v-56.83-201.445c0-22.275-18.122-40.397-40.398-40.397zm-143.282 175.799c-15.635 10.945-44.926-3.932-72.898 10.994-6.825-35.455-2.522-68.8 33.003-76.16 4.591-.957 9.534-1.39 13.742-1.306 12.024 8.921 24.186 17.944 36.176 26.841 5.249 15.268 3.279 30.32-10.023 39.631zm10.078-107.188 28.307 21.002-21.769 26.541c-8.962-6.649-16.666-12.365-25.628-19.015 1.861-2.781 17.389-25.987 19.09-28.528zm70.014-104.631c7.574-11.321 23.021-13.955 33.917-5.87 10.9 8.086 12.852 23.632 4.215 34.163-15.325 18.683-51.759 63.104-67.142 81.859l-29.87-22.162zm-46.034 455.13v6.315h-163.908v-6.315c0-5.648 4.596-10.244 10.245-10.244h143.418c5.649 0 10.245 4.596 10.245 10.244zm-56.393-30.244h-51.122l11.856-49.797h27.41zm186.015-90.194c0 11.247-9.15 20.397-20.397 20.397-15.874 0-364.508 0-382.356 0-11.247 0-20.397-9.15-20.397-20.397v-46.83h28.576c5.523 0 10-4.478 10-10s-4.477-10-10-10h-28.578v-191.445c0-11.247 9.15-20.397 20.397-20.397h257.615c-9.58 14.317-37.529 56.085-46.382 69.314-19.597.177-39.162 7.004-51.97 21.956-17.429 20.345-20.491 52.313-9.101 95.015 1.947 7.302 11.058 9.918 16.571 4.652 25.857-24.707 58.061 2.243 86.9-21.099 17.604-14.25 21.77-36.904 15.132-58.088 8.973-10.94 82.664-100.784 91.658-111.75h21.933c11.247 0 20.397 9.15 20.397 20.397v191.444h-314.574c-5.523 0-10 4.478-10 10s4.477 10 10 10h314.576z"/><path d="m111.075 298.619c-4.814.984-8.04 5.145-8.04 9.811 0 6.255 5.719 11.045 11.95 9.8 5.537-1.124 8.91-6.46 7.85-11.76-1.113-5.47-6.419-8.926-11.76-7.851z"/></symbol><symbol id="web-programming" viewBox="0 0 24 24"><title>web-programming</title><path d="m6.75 18c-.192 0-.384-.073-.53-.22-.293-.293-.293-.768 0-1.061l2.719-2.719-2.72-2.72c-.293-.293-.293-.768 0-1.061s.768-.293 1.061 0l3.25 3.25c.293.293.293.768 0 1.061l-3.25 3.25c-.146.147-.338.22-.53.22z"/><path d="m17.25 18h-4.5c-.414 0-.75-.336-.75-.75s.336-.75.75-.75h4.5c.414 0 .75.336.75.75s-.336.75-.75.75z"/><path d="m21.25 23h-18.5c-1.517 0-2.75-1.233-2.75-2.75v-16.5c0-1.517 1.233-2.75 2.75-2.75h18.5c1.517 0 2.75 1.233 2.75 2.75v16.5c0 1.517-1.233 2.75-2.75 2.75zm-18.5-20.5c-.689 0-1.25.561-1.25 1.25v16.5c0 .689.561 1.25 1.25 1.25h18.5c.689 0 1.25-.561 1.25-1.25v-16.5c0-.689-.561-1.25-1.25-1.25z"/><path d="m23.25 6h-22.5c-.414 0-.75-.336-.75-.75s.336-.75.75-.75h22.5c.414 0 .75.336.75.75s-.336.75-.75.75z"/></symbol><symbol id="planning" viewBox="0 0 512 512"><title>planning</title><g> <g> <path d="M482,332.596V45c0-24.813-20.187-45-45-45H106C81.187,0,61,20.187,61,45v16H45C20.187,61,0,81.187,0,106s20.187,45,45,45 h16v60H45c-24.813,0-45,20.187-45,45s20.187,45,45,45h16v60H45c-24.813,0-45,20.187-45,45s20.187,45,45,45h16v15 c0,11.955,4.597,23.347,12.944,32.079C82.526,507.056,93.911,512,106,512h301c57.897,0,105-47.551,105-106 C512,377.457,500.546,351.542,482,332.596z M45,121c-8.271,0-15-6.729-15-15s6.729-15,15-15h31c8.271,0,15,6.729,15,15 s-6.729,15-15,15H45z M45,271c-8.271,0-15-6.729-15-15s6.729-15,15-15h31c8.271,0,15,6.729,15,15s-6.729,15-15,15H45z M76,421H45 c-8.271,0-15-6.729-15-15s6.729-15,15-15h31c8.271,0,15,6.729,15,15S84.271,421,76,421z M106,482c-7.99,0-15-7.477-15-16v-17.58 c17.459-6.192,30-22.865,30-42.42c0-19.555-12.541-36.228-30-42.42v-65.16c17.459-6.192,30-22.865,30-42.42 c0-19.555-12.541-36.228-30-42.42v-65.16c17.459-6.192,30-22.865,30-42.42s-12.541-36.228-30-42.42V45c0-8.271,6.729-15,15-15h331 c8.271,0,15,6.729,15,15v266.145c-13.646-6.5-28.905-10.145-45-10.145c-57.897,0-105,47.103-105,105 c0,29.78,12.233,56.726,31.886,76H106z M407,482c-41.355,0-75-34.093-75-76c0-41.355,33.645-75,75-75c41.355,0,75,33.645,75,75 C482,447.907,448.355,482,407,482z"/> </g> </g><g> <g> <path d="M407,121h-90c-8.284,0-15,6.716-15,15s6.716,15,15,15h90c8.284,0,15-6.716,15-15S415.284,121,407,121z"/> </g> </g><g> <g> <path d="M407,241h-90c-8.284,0-15,6.716-15,15s6.716,15,15,15h90c8.284,0,15-6.716,15-15S415.284,241,407,241z"/> </g> </g><g> <g> <path d="M437,391h-15v-15c0-8.284-6.716-15-15-15s-15,6.716-15,15v30c0,8.284,6.716,15,15,15h30c8.284,0,15-6.716,15-15 S445.284,391,437,391z"/> </g> </g><g> <g> <path d="M266.606,95.393c-5.857-5.858-15.355-5.858-21.212,0.001L196,144.787l-23.611-23.611c-5.857-5.858-15.355-5.858-21.213,0 c-5.858,5.858-5.858,15.355,0,21.213l34.218,34.218C188.322,179.536,192.161,181,196,181s7.678-1.464,10.606-4.394l60-60 C272.464,110.748,272.464,101.251,266.606,95.393z"/> </g> </g><g> <g> <path d="M266.606,215.393c-5.857-5.858-15.355-5.858-21.212,0.001L196,264.787l-23.611-23.611c-5.857-5.858-15.355-5.858-21.213,0 c-5.858,5.858-5.858,15.355,0,21.213l34.218,34.218C188.322,299.536,192.161,301,196,301s7.678-1.464,10.606-4.394l60-60 C272.464,230.748,272.464,221.251,266.606,215.393z"/> </g> </g><g> <g> <path d="M266.606,335.393c-5.857-5.858-15.355-5.858-21.212,0.001L196,384.787l-23.611-23.611c-5.857-5.858-15.355-5.858-21.213,0 c-5.858,5.858-5.858,15.355,0,21.213l34.218,34.218C188.322,419.536,192.161,421,196,421s7.678-1.464,10.606-4.394l60-60 C272.464,350.748,272.464,341.251,266.606,335.393z"/> </g> </g></symbol><symbol id="api" viewBox="0 0 501.796 501.796"><title>api</title><path d="m343.973 400.1v-9.23-173.46c0-17.52-14.2-31.73-31.73-31.73h-277.11c-17.52 0-31.73 14.21-31.73 31.73v173.46 9.23z" fill="#edf5fa"/><path d="m312.243 185.68h-23.511c17.53 0 31.73 14.21 31.73 31.73v173.46 9.23h23.511v-9.23-173.46c0-17.52-14.2-31.73-31.73-31.73z" fill="#d0e7f2"/><path d="m230.043 412.378 4.26 70.852h-122.66l4.26-70.852h28.34v18.752c0 16.26 13.18 29.45 29.45 29.45 16.26 0 29.45-13.19 29.45-29.45v-18.752z" fill="#07b2cd"/><g fill="#0199b1"><path d="m153.694 460.58c3.51 0 6.875-.617 9.997-1.745-11.343-4.095-19.449-14.955-19.449-27.705v-18.752h-19.999v18.752c.001 16.26 13.181 29.45 29.451 29.45z"/><path d="m230.043 412.378h-19.999l4.26 70.852h19.999z"/></g><path d="m3.403 390.875v9.945c0 12.539 10.165 22.704 22.704 22.704h295.164c12.539 0 22.704-10.165 22.704-22.704v-9.945z" fill="#30dde5"/><path d="m320.463 390.875v9.945c0 12.539-10.165 22.704-22.704 22.704h23.512c12.539 0 22.704-10.165 22.704-22.704v-9.945z" fill="#02c7dd"/><g><path d="m171.64 286.206h-36.375c-4.142 0-7.5-3.357-7.5-7.5s3.358-7.5 7.5-7.5h36.375c4.142 0 7.5 3.357 7.5 7.5s-3.358 7.5-7.5 7.5z" fill="#bd80e1"/></g><g><path d="m171.64 315.656h-36.375c-4.142 0-7.5-3.357-7.5-7.5s3.358-7.5 7.5-7.5h36.375c4.142 0 7.5 3.357 7.5 7.5s-3.358 7.5-7.5 7.5z" fill="#bd80e1"/></g><g><path d="m401.677 301.36h-193.399c-4.142 0-7.5-3.357-7.5-7.5s3.358-7.5 7.5-7.5h193.399c9.028 0 16.374-7.346 16.374-16.374v-118.551c0-4.143 3.357-7.5 7.5-7.5s7.5 3.357 7.5 7.5v118.551c0 17.3-14.074 31.374-31.374 31.374z" fill="#017297"/></g><g><circle cx="51.806" cy="265.267" fill="#d0e7f2" r="7.518"/><g><path d="m102.546 272.767h-15.74c-4.142 0-7.5-3.357-7.5-7.5s3.358-7.5 7.5-7.5h15.74c4.142 0 7.5 3.357 7.5 7.5s-3.358 7.5-7.5 7.5z" fill="#d0e7f2"/></g></g><g><circle cx="103.028" cy="293.512" fill="#d0e7f2" r="7.518"/><g><path d="m68.028 301.012h-18.74c-4.142 0-7.5-3.357-7.5-7.5s3.358-7.5 7.5-7.5h18.74c4.142 0 7.5 3.357 7.5 7.5s-3.358 7.5-7.5 7.5z" fill="#d0e7f2"/></g></g><path d="m183.589 326.332h-9.221c-6.229 0-11.278-5.049-11.278-11.278v-44.009c0-6.229 5.049-11.278 11.278-11.278h9.221c18.382 0 33.283 14.901 33.283 33.283 0 18.381-14.902 33.282-33.283 33.282z" fill="#6cf5c2"/><path d="m183.589 259.767h-9.221c-1.671 0-3.253.373-4.679 1.026 14.405 3.661 25.061 16.714 25.061 32.257 0 15.544-10.656 28.596-25.061 32.257 1.427.653 3.008 1.026 4.679 1.026h9.221c18.382 0 33.283-14.901 33.283-33.283 0-18.382-14.902-33.283-33.283-33.283z" fill="#00f2a6"/><g><path d="m102.114 329.257h-52.826c-4.142 0-7.5-3.357-7.5-7.5s3.358-7.5 7.5-7.5h52.826c4.142 0 7.5 3.357 7.5 7.5s-3.357 7.5-7.5 7.5z" fill="#d0e7f2"/></g><g><path d="m68.104 501.794c-1.241 0-2.498-.308-3.658-.957-3.614-2.023-4.903-6.595-2.879-10.208 5.146-9.188 14.883-14.896 25.414-14.896h173.416c10.53 0 20.268 5.708 25.414 14.896 2.023 3.614.734 8.185-2.879 10.209-3.614 2.026-8.185.734-10.209-2.879-2.496-4.457-7.219-7.226-12.326-7.226h-173.416c-5.107 0-9.831 2.769-12.326 7.225-1.375 2.455-3.924 3.836-6.551 3.836z" fill="#30dde5"/></g><g><path d="m498.392 49.12v88.58c0 13.123-10.634 23.768-23.758 23.768h-136.446c-13.123 0-23.768-10.644-23.768-23.768v-88.58c0-13.123 10.644-23.768 23.768-23.768h136.446c13.123 0 23.758 10.645 23.758 23.768z" fill="#bd80e1"/><path d="m474.634 25.352h-21.134c13.123 0 23.758 10.644 23.758 23.768v88.58c0 13.124-10.634 23.768-23.758 23.768h21.134c13.123 0 23.758-10.644 23.758-23.768v-88.58c0-13.123-10.635-23.768-23.758-23.768z" fill="#af66da"/></g><path d="m498.393 23.77v25.35h-183.97v-25.35c0-13.12 10.64-23.77 23.77-23.77h136.44c13.12 0 23.76 10.65 23.76 23.77z" fill="#30dde5"/><circle cx="281.25" cy="293.86" fill="#02c7dd" r="15.036"/><path d="m498.393 23.77v25.35h-21.14v-25.35c0-13.12-10.63-23.77-23.75-23.77h21.13c13.12 0 23.76 10.65 23.76 23.77z" fill="#02c7dd"/><circle cx="469.695" cy="24.558" fill="#bd80e1" r="7.518"/><g fill="#edf5fa"><path d="m460.614 73.999c-3.278 0-5.935 2.657-5.935 5.935v35.803c0 3.278 2.657 5.935 5.935 5.935s5.935-2.657 5.935-5.935v-35.803c0-3.278-2.657-5.935-5.935-5.935z"/><path d="m382.67 74.841c-2.743 0-5.045 1.863-5.725 4.392-2.914-1.492-6.211-2.34-9.703-2.34-11.781 0-21.365 9.584-21.365 21.365 0 11.78 9.584 21.364 21.365 21.364 3.493 0 6.789-.848 9.703-2.34.68 2.529 2.982 4.392 5.726 4.392 3.278 0 5.935-2.657 5.935-5.935v-34.963c-.001-3.278-2.658-5.935-5.936-5.935zm-15.429 32.909c-5.235 0-9.494-4.259-9.494-9.494s4.259-9.494 9.494-9.494c5.234 0 9.494 4.259 9.494 9.494-.001 5.235-4.26 9.494-9.494 9.494z"/><path d="m422.142 75.619c-3.789 0-7.348.996-10.437 2.733-1.056-1.642-2.895-2.733-4.992-2.733-3.278 0-5.935 2.657-5.935 5.935v50.211c0 3.278 2.657 5.935 5.935 5.935s5.935-2.657 5.935-5.935v-15.649c2.862 1.426 6.085 2.233 9.494 2.233 11.78 0 21.364-9.584 21.364-21.365.001-11.781-9.583-21.365-21.364-21.365zm0 30.859c-5.235 0-9.494-4.259-9.494-9.494 0-5.234 4.259-9.494 9.494-9.494 5.234 0 9.494 4.259 9.494 9.494 0 5.234-4.259 9.494-9.494 9.494z"/></g></symbol><symbol id="database" viewBox="-37 0 512 512"><title>database</title><path d="M 438.855469 64 C 438.855469 28.652344 340.617188 0 219.429688 0 C 98.242188 0 0 28.652344 0 64 C 0 99.347656 98.242188 128 219.429688 128 C 340.617188 128 438.855469 99.347656 438.855469 64 Z M 438.855469 64 " style=" stroke:none;fill-rule:nonzero;fill:rgb(74.117647%,85.882353%,100%);fill-opacity:1;"/><path d="M 219.429688 256 C 340.570312 256 438.855469 227.382812 438.855469 192 L 438.855469 64 C 438.855469 99.382812 340.570312 128 219.429688 128 C 98.285156 128 0 99.382812 0 64 L 0 192 C 0 227.382812 98.285156 256 219.429688 256 Z M 219.429688 256 " style=" stroke:none;fill-rule:nonzero;fill:rgb(60.784314%,78.823529%,100%);fill-opacity:1;"/><path d="M 219.429688 384 C 340.570312 384 438.855469 355.382812 438.855469 320 L 438.855469 192 C 438.855469 227.382812 340.570312 256 219.429688 256 C 98.285156 256 0 227.382812 0 192 L 0 320 C 0 355.382812 98.285156 384 219.429688 384 Z M 219.429688 384 " style=" stroke:none;fill-rule:nonzero;fill:rgb(34.117647%,64.313725%,100%);fill-opacity:1;"/><path d="M 438.855469 320 C 438.855469 355.382812 340.570312 384 219.429688 384 C 98.285156 384 0 355.382812 0 320 L 0 448 C 0 483.382812 98.285156 512 219.429688 512 C 340.570312 512 438.855469 483.382812 438.855469 448 Z M 438.855469 320 " style=" stroke:none;fill-rule:nonzero;fill:rgb(14.117647%,53.333333%,100%);fill-opacity:1;"/></symbol><symbol id="ux-design" viewBox="0 0 497 497"><title>ux-design</title><path d="m362.667 33.37v430.26c0 18.43-14.94 33.37-33.37 33.37h-233.8c-18.43 0-33.37-14.94-33.37-33.37v-430.26c0-18.43 14.94-33.37 33.37-33.37h35.4l83.939 10.337 79.061-10.337h35.4c18.43 0 33.37 14.94 33.37 33.37z" fill="#bd80e1"/><g><path d="m206.011 377.177h-52.162c-4.143 0-7.5-3.357-7.5-7.5s3.357-7.5 7.5-7.5h44.662v-36.317c0-12.764 10.385-23.148 23.149-23.148h87.486c4.143 0 7.5 3.357 7.5 7.5s-3.357 7.5-7.5 7.5h-87.486c-4.493 0-8.149 3.655-8.149 8.148v43.816c0 4.143-3.358 7.501-7.5 7.501z" fill="#017297"/></g><g><path d="m309.146 377.177h-171.539c-4.143 0-7.5-3.357-7.5-7.5s3.357-7.5 7.5-7.5h171.539c4.143 0 7.5 3.357 7.5 7.5s-3.357 7.5-7.5 7.5z" fill="#017297"/></g><g><path d="m212.397 439.314h-71.607c-12.765 0-23.149-10.385-23.149-23.149v-41.205c0-4.143 3.357-7.5 7.5-7.5s7.5 3.357 7.5 7.5v41.205c0 4.493 3.656 8.149 8.149 8.149h71.607c4.143 0 7.5 3.357 7.5 7.5s-3.357 7.5-7.5 7.5z" fill="#017297"/></g><path d="m329.297 0h-24.849c18.43 0 33.37 14.94 33.37 33.37v430.26c0 18.43-14.94 33.37-33.37 33.37h24.849c18.43 0 33.37-14.94 33.37-33.37v-430.26c0-18.43-14.94-33.37-33.37-33.37z" fill="#af66da"/><path d="m293.897 0-4.55 23.76c-2.5 13.05-13.91 22.48-27.19 22.48h-99.52c-13.28 0-24.69-9.43-27.19-22.48l-4.55-23.76z" fill="#017297"/><path d="m268.812 0-4.55 23.76c-2.5 13.05-13.91 22.48-27.19 22.48h25.085c13.28 0 24.69-9.43 27.19-22.48l4.55-23.76z" fill="#025f80"/><path d="m417.568 324.844h-109.614c-9.557 0-17.305-7.748-17.305-17.305 0-9.557 7.748-17.305 17.305-17.305h109.614c9.557 0 17.305 7.748 17.305 17.305 0 9.557-7.748 17.305-17.305 17.305z" fill="#d0e7f2"/><path d="m417.568 290.234h-22.021c9.557 0 17.305 7.748 17.305 17.305 0 9.557-7.748 17.305-17.305 17.305h22.021c9.557 0 17.305-7.748 17.305-17.305 0-9.557-7.748-17.305-17.305-17.305z" fill="#b7d9eb"/><path d="m417.568 384.982h-109.614c-9.557 0-17.305-7.748-17.305-17.305 0-9.557 7.748-17.305 17.305-17.305h109.614c9.557 0 17.305 7.748 17.305 17.305 0 9.557-7.748 17.305-17.305 17.305z" fill="#d0e7f2"/><path d="m417.568 350.372h-22.021c9.557 0 17.305 7.748 17.305 17.305s-7.748 17.305-17.305 17.305h22.021c9.557 0 17.305-7.748 17.305-17.305s-7.748-17.305-17.305-17.305z" fill="#b7d9eb"/><path d="m285.075 449.12h-63.459c-9.557 0-17.305-7.748-17.305-17.305 0-9.557 7.748-17.305 17.305-17.305h63.459c9.557 0 17.305 7.748 17.305 17.305 0 9.557-7.748 17.305-17.305 17.305z" fill="#00f2a6"/><path d="m285.075 414.51h-22.021c9.557 0 17.305 7.748 17.305 17.305s-7.748 17.305-17.305 17.305h22.021c9.557 0 17.305-7.748 17.305-17.305 0-9.558-7.748-17.305-17.305-17.305z" fill="#05e39c"/><path d="m136.543 386.982h-22.806c-9.557 0-17.305-7.748-17.305-17.305 0-9.557 7.748-17.305 17.305-17.305h22.806c9.557 0 17.305 7.748 17.305 17.305 0 9.557-7.748 17.305-17.305 17.305z" fill="#30dde5"/><path d="m136.543 352.372h-22.021c9.557 0 17.305 7.748 17.305 17.305s-7.748 17.305-17.305 17.305h22.021c9.557 0 17.305-7.748 17.305-17.305s-7.748-17.305-17.305-17.305z" fill="#02c7dd"/><g><g><path d="m227.346 31.8h-29.896c-4.143 0-7.5-3.357-7.5-7.5s3.357-7.5 7.5-7.5h29.896c4.143 0 7.5 3.357 7.5 7.5s-3.358 7.5-7.5 7.5z" fill="#025f80"/></g></g><g><circle cx="322.806" cy="31.684" fill="#d0e7f2" r="7.384"/></g><g><g><g><path d="m142.906 234.368c-.027 0-.053 0-.08 0-9.574-.013-18.371-2.538-26.147-7.506-14.998-9.582-22.289-21.823-22.289-37.423v-82.578c0-4.143 3.357-7.5 7.5-7.5s7.5 3.357 7.5 7.5v82.578c0 10.49 4.595 17.901 15.365 24.782 5.331 3.406 11.418 5.138 18.092 5.146h.058c5.951 0 11.462-1.256 16.384-3.734 12.441-6.266 18.489-14.862 18.489-26.281v-82.491c0-4.143 3.357-7.5 7.5-7.5s7.5 3.357 7.5 7.5v82.491c0 17.146-9.247 30.867-26.743 39.678-7.034 3.542-14.815 5.338-23.129 5.338z" fill="#edf5fa"/></g></g><g><g><path d="m225.696 232.873c-1.572 0-3.157-.492-4.51-1.512-3.307-2.494-3.967-7.196-1.473-10.504l90.161-119.573c2.492-3.308 7.195-3.967 10.504-1.473 3.307 2.493 3.967 7.196 1.473 10.504l-90.161 119.574c-1.473 1.955-3.72 2.984-5.994 2.984z" fill="#edf5fa"/></g><g><path d="m322.607 234.996c-2.266 0-4.505-1.022-5.98-2.966l-92.357-121.696c-2.504-3.3-1.859-8.005 1.44-10.509s8.004-1.859 10.509 1.44l92.357 121.696c2.504 3.3 1.859 8.005-1.44 10.509-1.356 1.029-2.948 1.526-4.529 1.526z" fill="#edf5fa"/></g></g></g></symbol><symbol id="coding" viewBox="0 0 496 496"><title>coding</title><g><path d="m426.925 157.822v215.483c0 21.851-17.718 39.581-39.581 39.581h-347.763c-21.863-.001-39.581-17.73-39.581-39.582v-215.482c0-20.943 16.977-37.908 37.908-37.908h351.109c20.931 0 37.908 16.964 37.908 37.908z" fill="#d0e7f2"/><path d="m244.851 119.914h48.095v292.972h-48.095z" fill="#b7d9eb"/></g><path d="m251.445 309.24h-53.453c-10.466 0-18.951-8.485-18.951-18.951v-68.537c0-10.466 8.485-18.951 18.951-18.951h53.453c10.466 0 18.951 8.485 18.951 18.951v68.537c0 10.467-8.485 18.951-18.951 18.951z" fill="#02c7dd"/><path d="m251.445 202.801h-25.198c10.466 0 18.951 8.485 18.951 18.951v68.537c0 10.466-8.485 18.951-18.951 18.951h25.198c10.466 0 18.951-8.485 18.951-18.951v-68.537c0-10.466-8.485-18.951-18.951-18.951z" fill="#07b2cd"/><path d="m426.925 141.023v17.407h-426.925v-17.407c0-20.943 16.977-37.908 37.908-37.908h351.109c20.931 0 37.908 16.965 37.908 37.908z" fill="#07b2cd"/><path d="m244.851 103.115h48.095v55.315h-48.095z" fill="#0199b1"/><g><path d="m496 72.233v367.269c0 21.851-17.718 39.581-39.581 39.581h-147.442c-21.863 0-39.581-17.729-39.581-39.581v-367.269c0-20.943 16.977-37.908 37.908-37.908h150.788c20.931-.001 37.908 16.964 37.908 37.908z" fill="#bd80e1"/><path d="m458.092 34.324h-23.854c20.932 0 37.908 16.965 37.908 37.908v367.269c0 21.851-17.718 39.581-39.581 39.581h23.854c21.863 0 39.581-17.729 39.581-39.581v-367.268c0-20.944-16.977-37.909-37.908-37.909z" fill="#af66da"/></g><path d="m496 54.826v17.407h-226.604v-17.407c0-20.943 16.977-37.908 37.908-37.908h150.788c20.931 0 37.908 16.964 37.908 37.908z" fill="#30dde5"/><path d="m458.092 16.918h-23.854c20.932 0 37.908 16.965 37.908 37.908v17.407h23.854v-17.407c0-20.944-16.977-37.908-37.908-37.908z" fill="#02c7dd"/><path d="m122.803 309.24h-53.453c-10.466 0-18.951-8.485-18.951-18.951v-68.537c0-10.466 8.485-18.951 18.951-18.951h53.453c10.466 0 18.951 8.485 18.951 18.951v68.537c0 10.467-8.485 18.951-18.951 18.951z" fill="#02c7dd"/><path d="m122.803 202.801h-25.198c10.466 0 18.951 8.485 18.951 18.951v68.537c0 10.466-8.484 18.951-18.951 18.951h25.198c10.466 0 18.951-8.485 18.951-18.951v-68.537c0-10.466-8.485-18.951-18.951-18.951z" fill="#07b2cd"/><g><g><path d="m121.754 354.887h-51.355c-4.143 0-7.5-3.358-7.5-7.5s3.357-7.5 7.5-7.5h51.354c4.143 0 7.5 3.358 7.5 7.5s-3.357 7.5-7.499 7.5z" fill="#edf5fa"/></g><g><path d="m107.107 384.872h-19.99c-4.143 0-7.5-3.358-7.5-7.5s3.357-7.5 7.5-7.5h19.99c4.143 0 7.5 3.358 7.5 7.5s-3.357 7.5-7.5 7.5z" fill="#edf5fa"/></g></g><g><g><path d="m257.9 347.388c0 4.14-3.36 7.5-7.5 7.5h-51.36c-4.14 0-7.5-3.36-7.5-7.5s3.36-7.5 7.5-7.5h51.36c4.14 0 7.5 3.36 7.5 7.5z" fill="#edf5fa"/></g><path d="m257.9 347.388c0 4.14-3.36 7.5-7.5 7.5h-5.55v-15h5.55c4.14 0 7.5 3.36 7.5 7.5z" fill="#d0e7f2"/><g><path d="m235.749 384.872h-19.989c-4.143 0-7.5-3.358-7.5-7.5s3.357-7.5 7.5-7.5h19.989c4.143 0 7.5 3.358 7.5 7.5s-3.357 7.5-7.5 7.5z" fill="#edf5fa"/></g></g><g><path d="m440.315 302.74h-112.779c-4.143 0-7.5-3.358-7.5-7.5s3.357-7.5 7.5-7.5h112.779c4.143 0 7.5 3.358 7.5 7.5s-3.357 7.5-7.5 7.5z" fill="#edf5fa"/></g><g><path d="m404.481 333.725h-76.945c-4.143 0-7.5-3.358-7.5-7.5s3.357-7.5 7.5-7.5h76.945c4.143 0 7.5 3.358 7.5 7.5s-3.357 7.5-7.5 7.5z" fill="#edf5fa"/></g><g><g><path d="m420.75 225.149c-1.919 0-3.839-.732-5.304-2.197-2.929-2.929-2.929-7.678 0-10.606l41.829-41.829-41.829-41.829c-2.929-2.929-2.929-7.678 0-10.606 2.93-2.929 7.678-2.929 10.607 0l47.132 47.132c2.929 2.929 2.929 7.678 0 10.606l-47.132 47.132c-1.464 1.464-3.384 2.197-5.303 2.197z" fill="#00f2a6"/></g><g><path d="m348.915 225.149c-1.92 0-3.839-.732-5.304-2.197l-47.131-47.132c-2.929-2.929-2.929-7.678 0-10.606l47.131-47.132c2.93-2.929 7.678-2.929 10.607 0s2.929 7.678 0 10.606l-41.828 41.829 41.828 41.829c2.929 2.929 2.929 7.678 0 10.606-1.464 1.464-3.384 2.197-5.303 2.197z" fill="#00f2a6"/></g><g><path d="m371.003 209.947c-1.046 0-2.108-.22-3.122-.685-3.765-1.727-5.417-6.179-3.69-9.944l29.904-65.199c1.727-3.764 6.176-5.418 9.944-3.69 3.765 1.727 5.417 6.179 3.69 9.944l-29.904 65.199c-1.262 2.752-3.98 4.375-6.822 4.375z" fill="#edf5fa"/></g></g><g><path d="m252.35 131.368c0 4.15-3.36 7.5-7.5 7.5h-35.72c-4.14 0-7.5-3.35-7.5-7.5 0-4.14 3.36-7.5 7.5-7.5h35.72c4.14 0 7.5 3.36 7.5 7.5z" fill="#30dde5"/></g><path d="m252.35 131.368c0 4.15-3.36 7.5-7.5 7.5v-15c4.14 0 7.5 3.36 7.5 7.5z" fill="#02c7dd"/><g><path d="m355.514 52.673h-35.719c-4.143 0-7.5-3.358-7.5-7.5s3.357-7.5 7.5-7.5h35.719c4.143 0 7.5 3.358 7.5 7.5s-3.358 7.5-7.5 7.5z" fill="#02c7dd"/></g><circle cx="455.434" cy="45.173" fill="#bd80e1" r="7.379"/><circle cx="440.316" cy="326.225" fill="#edf5fa" r="7.379"/><g><g><path d="m440.315 387.4h-112.779c-4.143 0-7.5-3.358-7.5-7.5s3.357-7.5 7.5-7.5h112.779c4.143 0 7.5 3.358 7.5 7.5s-3.357 7.5-7.5 7.5z" fill="#edf5fa"/></g><g><path d="m351.082 416.385h-23.546c-4.143 0-7.5-3.358-7.5-7.5s3.357-7.5 7.5-7.5h23.546c4.143 0 7.5 3.358 7.5 7.5s-3.357 7.5-7.5 7.5z" fill="#edf5fa"/></g><g><path d="m440.315 416.385h-19.168c-4.143 0-7.5-3.358-7.5-7.5s3.357-7.5 7.5-7.5h19.168c4.143 0 7.5 3.358 7.5 7.5s-3.357 7.5-7.5 7.5z" fill="#edf5fa"/></g><g><path d="m409.313 446.37h-81.776c-4.143 0-7.5-3.358-7.5-7.5s3.357-7.5 7.5-7.5h81.776c4.143 0 7.5 3.358 7.5 7.5s-3.358 7.5-7.5 7.5z" fill="#edf5fa"/></g><circle cx="386.472" cy="408.885" fill="#edf5fa" r="7.379"/></g></symbol><symbol id="bug" viewBox="0 0 504.501 504.501"><title>bug</title><g><path d="m277.845 309.179v131.863c0 25.368-20.569 45.95-45.95 45.95h-185.945c-25.381 0-45.95-20.582-45.95-45.95v-131.863c0-24.314 19.709-44.008 44.008-44.008h189.828c24.3 0 44.009 19.695 44.009 44.008z" fill="#edf5fa"/><path d="m233.836 265.171h-24.219c24.3 0 44.009 19.695 44.009 44.008v131.863c0 25.368-20.569 45.95-45.95 45.95h24.219c25.381 0 45.95-20.583 45.95-45.95v-131.863c0-24.313-19.709-44.008-44.009-44.008z" fill="#d0e7f2"/></g><path d="m277.84 288.969v20.21h-277.84v-20.21c0-24.31 19.71-44 44.01-44h189.83c24.3 0 44 19.69 44 44z" fill="#30dde5"/><path d="m277.84 288.969v20.21h-26.41c-5.53-3.36-10.7-7.26-15.43-11.64-14.84-13.7-25.4-31.96-29.44-52.57h27.28c24.3 0 44 19.69 44 44z" fill="#02c7dd"/><g><path d="m266.048 157.993h-37.329c-19.86 0-36.019-16.158-36.019-36.019v-47.369c0-4.143 3.357-7.5 7.5-7.5s7.5 3.357 7.5 7.5v47.369c0 11.59 9.429 21.019 21.019 21.019h37.329c4.143 0 7.5 3.357 7.5 7.5s-3.358 7.5-7.5 7.5z" fill="#017297"/></g><g><path d="m200.2 289.357c-4.143 0-7.5-3.357-7.5-7.5v-43.162c0-19.86 16.158-36.019 36.019-36.019h30.96c4.143 0 7.5 3.357 7.5 7.5s-3.357 7.5-7.5 7.5h-30.96c-11.59 0-21.019 9.429-21.019 21.019v43.162c0 4.142-3.357 7.5-7.5 7.5z" fill="#017297"/></g><g><path d="m273.799 188.323h-74.075c-12.771 0-24.698-6.856-31.126-17.894l-15.424-26.49c-2.084-3.579-.872-8.171 2.708-10.255 3.577-2.085 8.169-.872 10.255 2.708l15.424 26.489c3.75 6.44 10.71 10.441 18.163 10.441h74.075c4.143 0 7.5 3.357 7.5 7.5s-3.358 7.501-7.5 7.501z" fill="#017297"/></g><g><path d="m427.938 157.993h-34.298c-4.143 0-7.5-3.357-7.5-7.5s3.357-7.5 7.5-7.5h34.298c11.589 0 21.018-9.429 21.018-21.019v-47.369c0-4.143 3.357-7.5 7.5-7.5s7.5 3.357 7.5 7.5v47.369c-.001 19.86-16.158 36.019-36.018 36.019z" fill="#017297"/></g><g><path d="m456.455 289.357c-4.143 0-7.5-3.357-7.5-7.5v-43.162c0-11.59-9.429-21.019-21.018-21.019h-24.697c-4.143 0-7.5-3.357-7.5-7.5s3.357-7.5 7.5-7.5h24.697c19.86 0 36.018 16.158 36.018 36.019v43.162c0 4.142-3.357 7.5-7.5 7.5z" fill="#017297"/></g><g><path d="m456.932 188.323h-53.996c-4.143 0-7.5-3.357-7.5-7.5s3.357-7.5 7.5-7.5h53.996c7.453 0 14.413-4.001 18.163-10.442l15.424-26.488c2.085-3.58 6.676-4.793 10.255-2.708 3.58 2.084 4.792 6.676 2.708 10.255l-15.424 26.489c-6.428 11.037-18.355 17.894-31.126 17.894z" fill="#017297"/></g><g><path d="m328.835 75.255c-1.308 0-2.615-.341-3.785-1.025l-21.015-12.286c-8.692-4.955-13.925-13.125-13.925-21.814v-15.12c0-4.143 3.357-7.5 7.5-7.5s7.5 3.357 7.5 7.5v15.12c0 3.28 2.342 6.497 6.424 8.824l17.185 10.046 16.036-9.953c.069-.043.14-.085.21-.126 4.045-2.331 6.365-5.535 6.365-8.792v-15.12c0-4.143 3.357-7.5 7.5-7.5s7.5 3.357 7.5 7.5v15.12c0 8.599-5.143 16.711-13.763 21.723l-19.777 12.275c-1.21.751-2.582 1.128-3.955 1.128z" fill="#fe5ca7"/></g><path d="m122.138 448.493h-61.053c-8.706 0-15.764-7.058-15.764-15.764v-75.453c0-8.706 7.058-15.764 15.764-15.764h61.053c8.706 0 15.764 7.058 15.764 15.764v75.453c.001 8.706-7.057 15.764-15.764 15.764z" fill="#00f2a6"/><path d="m122.138 341.511h-22.52c8.707 0 15.765 7.058 15.765 15.765v75.453c0 8.706-7.058 15.765-15.765 15.765h22.52c8.707 0 15.764-7.058 15.764-15.765v-75.453c.001-8.707-7.057-15.765-15.764-15.765z" fill="#05e39c"/><path d="m218.334 448.493h-23.722c-8.706 0-15.764-7.058-15.764-15.764v-75.453c0-8.706 7.058-15.764 15.764-15.764h23.722c8.706 0 15.764 7.058 15.764 15.764v75.453c0 8.706-7.058 15.764-15.764 15.764z" fill="#bd80e1"/><path d="m218.334 341.511h-22.52c8.706 0 15.764 7.058 15.764 15.765v75.453c0 8.706-7.058 15.765-15.764 15.765h22.52c8.706 0 15.765-7.058 15.765-15.765v-75.453c-.001-8.707-7.059-15.765-15.765-15.765z" fill="#af66da"/><path d="m425.44 142.539v83.64c0 4.94-.37 9.78-1.08 14.52-1.387 9.262-20.74 48.073-29.91 56.59-17.33 16.14-40.57 26-66.12 26v-219.35h58.51c21.32 0 38.6 17.28 38.6 38.6z" fill="#fe5ca7"/><path d="m386.84 103.939h-22.505c21.32 0 38.6 17.28 38.6 38.6v83.64c0 4.94-.37 9.78-1.08 14.52-3.33 22.23-14.19 41.99-29.91 56.59-12.074 11.245-27.02 19.437-43.615 23.374v2.626c25.55 0 48.79-9.86 66.12-26 8.359-7.764 28.351-46.181 29.91-56.59.71-4.74 1.08-9.58 1.08-14.52v-83.64c0-21.32-17.28-38.6-38.6-38.6z" fill="#fe3d97"/><path d="m328.33 103.939v219.35c-25.42 0-48.56-9.76-65.86-25.75-7.308-6.743-28.285-44.544-30.12-56.45-.75-4.86-1.14-9.84-1.14-14.91v-83.64c0-21.32 17.29-38.6 38.6-38.6z" fill="#fe5ca7"/><path d="m305.825 103.939v216.725c7.223 1.713 14.757 2.625 22.505 2.625v-219.35z" fill="#fe3d97"/><path d="m360.84 197.989c0 17.67-14.33 32-32.01 32-.17 0-.33 0-.5-.01-8.83-.13-16.79-3.84-22.5-9.74-5.57-5.77-9-13.61-9-22.25 0-8.65 3.43-16.49 9-22.25 5.71-5.91 13.67-9.62 22.5-9.75.17-.01.33-.01.5-.01 17.68 0 32.01 14.33 32.01 32.01z" fill="#017297"/><path d="m328.33 165.989v63.99c-8.83-.13-16.79-3.84-22.5-9.74v-44.5c5.71-5.91 13.67-9.62 22.5-9.75z" fill="#025f80"/><path d="m365.094 126.939h-73.531c-12.38 0-22.059-10.679-20.846-23 2.918-29.631 27.837-52.216 57.611-52.216 29.774 0 54.693 22.585 57.611 52.216 1.214 12.321-8.465 23-20.845 23z" fill="#30dde5"/><path d="m385.94 103.939c-2.918-29.631-27.837-52.216-57.611-52.216-4.395 0-8.679.504-12.807 1.438 23.84 5.394 42.317 25.521 44.804 50.778 1.213 12.32-8.466 23-20.846 23h25.614c12.38 0 22.059-10.679 20.846-23z" fill="#02c7dd"/><path d="m424.36 240.699c-3.33 22.23-14.19 41.99-29.91 56.59-5.01-2.54-9.26-6.35-12.33-11.02-3.31-5.04-5.23-11.07-5.23-17.54 0-15.42 10.9-28.29 25.4-31.33 2.13-.45 4.34-.68 6.6-.68 5.61 0 10.88 1.44 15.47 3.98z" fill="#017297"/><path d="m424.36 240.699c-3.33 22.23-14.19 41.99-29.91 56.59-5.01-2.54-9.26-6.35-12.33-11.02 10.2-12.93 17.18-28.52 19.73-45.57.17-1.1.31-2.2.44-3.3 2.13-.45 4.34-.68 6.6-.68 5.61 0 10.88 1.44 15.47 3.98z" fill="#025f80"/><path d="m280.5 268.729c0 12.66-7.36 23.61-18.03 28.81-15.77-14.55-26.7-34.26-30.12-56.45 4.74-2.78 10.26-4.37 16.15-4.37 17.67 0 32 14.33 32 32.01z" fill="#017297"/><path d="m248.5 236.719c-3.363 0-6.598.534-9.643 1.496 12.937 4.105 22.317 16.212 22.317 30.514 0 7.594-2.662 14.561-7.084 20.052 2.61 3.09 5.409 6.016 8.381 8.758 10.67-5.2 18.03-16.15 18.03-28.81-.001-17.68-14.331-32.01-32.001-32.01z" fill="#025f80"/><g><path d="m159.655 285.268h-41.466c-4.143 0-7.5-3.357-7.5-7.5s3.357-7.5 7.5-7.5h41.466c4.143 0 7.5 3.357 7.5 7.5s-3.357 7.5-7.5 7.5z" fill="#02c7dd"/></g><path d="" fill="none"/><path d="m118.45 408.779c2.93 2.93 2.93 7.68 0 10.61-.89.89-1.95 1.5-3.07 1.84-.73.24-1.48.35-2.24.35-1.91 0-3.83-.73-5.3-2.19l-15.81-15.81-15.81 15.81c-1.46 1.46-3.38 2.19-5.3 2.19s-3.84-.73-5.31-2.19c-2.93-2.93-2.93-7.68 0-10.61l15.81-15.81-15.81-15.81c-2.93-2.93-2.93-7.68 0-10.61s7.68-2.93 10.61 0l15.81 15.81 15.81-15.81c2.04-2.04 4.97-2.66 7.54-1.85 1.12.34 2.18.96 3.07 1.85 2.93 2.93 2.93 7.68 0 10.61l-15.81 15.81z" fill="#fe5ca7"/><g fill="#fe3d97"><path d="m118.45 408.779c2.93 2.93 2.93 7.68 0 10.61-.89.89-1.95 1.5-3.07 1.84v-15.52z"/><path d="m118.45 377.159-3.07 3.07v-15.53c1.12.34 2.18.96 3.07 1.85 2.93 2.93 2.93 7.68 0 10.61z"/></g></symbol><symbol id="web-security" viewBox="0 0 497 497"><title>web-security</title><path d="m421.997 142.469c-47.208-17.448-84.56-79.58-101.143-111.52-6.142-11.83-18.344-19.266-31.674-19.266h-135.65c-13.33 0-25.532 7.435-31.674 19.266-16.599 31.971-54.008 94.195-101.283 111.572-14.45 5.312-22.939 20.259-19.991 35.37 12.814 65.692 56.27 219.98 189.779 297.413 3.778 2.191 17.4 9.926 30.983 10.013 13.647.088 27.255-7.482 30.803-9.583 134.694-79.767 177.369-232.619 189.968-297.871 2.922-15.132-5.663-30.051-20.118-35.394z" fill="#af66da"/><path d="m421.997 142.469c-47.208-17.448-84.56-79.581-101.143-111.52-6.142-11.831-18.344-19.266-31.674-19.266h-19.206c13.33 0 25.532 7.435 31.674 19.266 16.583 31.939 53.934 94.072 101.143 111.52 14.455 5.343 23.04 20.262 20.118 35.394-12.598 65.251-55.273 218.104-189.968 297.871-2.677 1.585-11.08 6.281-20.904 8.455 3.024.675 6.166 1.108 9.308 1.128 13.647.088 27.255-7.481 30.803-9.583 134.694-79.767 177.369-232.619 189.968-297.871 2.921-15.132-5.664-30.051-20.119-35.394z" fill="#9857bd"/><path d="m407.649 173.99c-1.84 9.25-4.2 19.76-7.23 31.19-7.7 29.18-19.69 64.42-38.22 100.32-32.01 62.01-74.96 109.27-127.67 140.49-4.96 2.94-10.58 4.76-12.95 4.76h-.01c-.05 0-4.8-.09-13.87-5.35-.43-.25-.85-.49-1.27-.75-119.02-69.85-159.25-210.36-171.38-270.66 30.15-11.89 74.19-43.73 117.49-127.11.2-.39.58-.63.99-.63h135.65c.41 0 .79.24 1 .63 8.58 16.53 17.19 31.03 25.72 43.75 34.49 51.49 67.61 73.83 91.75 83.36z" fill="#30dde5"/><g><path d="m407.65 173.99c-6.54 32.88-19.67 81.55-45.45 131.51-32.01 62.01-74.96 109.27-127.67 140.49-4.96 2.94-10.58 4.76-12.95 4.76h-.01c-.05 0-4.8-.09-13.87-5.35-.43-.25-.85-.49-1.27-.75 2.78.63 7.34.49 12.66-3.02 48.83-32.16 89.98-76.94 120.53-136.13 23.13-44.82 35.07-84.59 42.21-116.87 1.32-5.99-1.63-12.08-7.13-14.8-29.48-14.54-68.151-48.708-105.84-124.519-1.343-2.702-3.85-3.061-4.26-3.061h24.58c.41 0 .79.24 1 .63 43.3 83.42 87.36 115.23 117.47 127.11z" fill="#02c7dd"/></g><g><path d="m256.073 225.565c0-19.605-16.573-35.339-36.473-33.956-16.669 1.158-30.209 14.58-31.503 31.238-.93 11.975 4.348 22.762 12.946 29.508l-11.706 63.698c-.576 3.137 1.832 6.028 5.021 6.028h55.348c3.189 0 5.598-2.891 5.021-6.028l-11.706-63.698c7.943-6.232 13.052-15.911 13.052-26.79z" fill="#017297"/><path d="m255.988 223.119c-1.143-16.349-14.098-29.731-30.401-31.412-5.042-.52-9.878.085-14.315 1.563 13.527 4.503 23.285 17.255 23.285 32.295 0 10.879-5.109 20.558-13.052 26.79l10.875 59.173c1.009 5.491-3.207 10.553-8.791 10.553h26.118c3.189 0 5.598-2.891 5.021-6.028l-11.706-63.698c8.532-6.695 13.795-17.37 12.966-29.236z" fill="#025f80"/></g><g><path d="m470.82 90.627h-276.165c-14.459 0-26.18 11.721-26.18 26.18v62.194c0 14.459 11.721 26.18 26.18 26.18h94.53c5.862 0 11.239 3.256 13.956 8.45l14.15 40.492c3.652 6.981 13.572 7.181 17.501.352l16.086-41.398c2.81-4.885 8.016-7.896 13.652-7.896h106.29c14.459 0 26.18-11.721 26.18-26.18v-62.194c0-14.458-11.721-26.18-26.18-26.18z" fill="#edf5fa"/></g><g fill="#d0e7f2"><path d="m326.18 213.078-9.692 24.945c-.652 1.678-2.583 2.46-4.218 1.708l-.01-.005 5.032 14.399c3.651 6.981 13.572 7.18 17.501.352l16.086-41.398c2.81-4.885 8.016-7.896 13.652-7.896h-24.698c-5.636-.001-10.842 3.01-13.653 7.895z"/><path d="m470.82 90.627h-24.698c14.459 0 26.18 11.721 26.18 26.18v62.194c0 14.459-11.721 26.18-26.18 26.18h24.698c14.459 0 26.18-11.721 26.18-26.18v-62.194c0-14.458-11.721-26.18-26.18-26.18z"/></g><g><g><path d="m227.587 178.73c-4.142 0-7.5-3.357-7.5-7.5v-51.537c0-4.143 3.358-7.5 7.5-7.5s7.5 3.357 7.5 7.5v51.537c0 4.142-3.358 7.5-7.5 7.5z" fill="#017297"/></g><g><path d="m206.677 171.182c-2.093 0-4.175-.871-5.658-2.573-2.721-3.123-2.395-7.86.728-10.581l41.826-36.441c3.123-2.722 7.86-2.396 10.582.728 2.721 3.123 2.396 7.86-.728 10.581l-41.826 36.441c-1.421 1.238-3.176 1.845-4.924 1.845z" fill="#017297"/></g><g><path d="m248.497 171.182c-1.748 0-3.503-.607-4.924-1.846l-41.826-36.441c-3.123-2.721-3.449-7.458-.728-10.581s7.458-3.449 10.582-.728l41.826 36.441c3.123 2.721 3.448 7.458.728 10.581-1.484 1.703-3.565 2.574-5.658 2.574z" fill="#017297"/></g></g><g><g><path d="m304.721 182.215c-4.143 0-7.5-3.357-7.5-7.5v-55.022c0-4.143 3.357-7.5 7.5-7.5s7.5 3.357 7.5 7.5v55.022c0 4.143-3.357 7.5-7.5 7.5z" fill="#017297"/></g><g><path d="m283.812 171.182c-2.093 0-4.175-.871-5.657-2.573-2.722-3.123-2.396-7.86.728-10.581l41.825-36.441c3.122-2.722 7.86-2.396 10.581.728 2.722 3.123 2.396 7.86-.728 10.581l-41.825 36.441c-1.421 1.238-3.177 1.845-4.924 1.845z" fill="#017297"/></g><g><path d="m325.631 171.182c-1.748 0-3.503-.607-4.924-1.846l-41.825-36.441c-3.123-2.721-3.449-7.458-.728-10.581 2.72-3.125 7.459-3.449 10.581-.728l41.825 36.441c3.123 2.721 3.449 7.458.728 10.581-1.482 1.703-3.564 2.574-5.657 2.574z" fill="#017297"/></g></g><g><g><path d="m381.969 178.73c-4.143 0-7.5-3.357-7.5-7.5v-51.537c0-4.143 3.357-7.5 7.5-7.5s7.5 3.357 7.5 7.5v51.537c0 4.142-3.357 7.5-7.5 7.5z" fill="#017297"/></g><g><path d="m361.059 171.182c-2.093 0-4.175-.871-5.658-2.573-2.721-3.123-2.395-7.86.729-10.582l41.826-36.441c3.123-2.72 7.859-2.395 10.582.729 2.721 3.123 2.395 7.86-.729 10.582l-41.826 36.441c-1.421 1.237-3.177 1.844-4.924 1.844z" fill="#017297"/></g><g><path d="m402.879 171.182c-1.748 0-3.503-.607-4.924-1.845l-41.826-36.441c-3.123-2.722-3.449-7.459-.729-10.582 2.722-3.125 7.459-3.447 10.582-.729l41.826 36.441c3.123 2.722 3.449 7.459.729 10.582-1.483 1.703-3.565 2.574-5.658 2.574z" fill="#017297"/></g></g><g><path d="m462.039 176.215h-29.14c-4.143 0-7.5-3.357-7.5-7.5s3.357-7.5 7.5-7.5h29.14c4.143 0 7.5 3.357 7.5 7.5s-3.358 7.5-7.5 7.5z" fill="#b7d9eb"/></g></symbol></svg>