<?xml version="1.0" encoding="UTF-8" standalone="no"?>
<!DOCTYPE svg PUBLIC "-//W3C//DTD SVG 1.1//EN" "http://www.w3.org/Graphics/SVG/1.1/DTD/svg11.dtd">
<svg width="100%" height="100%" viewBox="0 0 3167 1150" version="1.1" xmlns="http://www.w3.org/2000/svg" xmlns:xlink="http://www.w3.org/1999/xlink" xml:space="preserve" xmlns:serif="http://www.serif.com/" style="fill-rule:evenodd;clip-rule:evenodd;stroke-linejoin:round;stroke-miterlimit:2;">
    <g transform="matrix(5.55556,0,0,5.55556,0,0)">
        <path d="M235.08,121.658C235.145,121.658 235.198,121.688 235.198,121.725C235.198,121.761 235.145,121.791 235.08,121.791C235.015,121.791 236.198,109.021 236.198,108.985C236.198,108.948 235.015,121.658 235.08,121.658Z" style="fill:rgb(235,235,235);"/>
        <g id="Artboard1" transform="matrix(1,0,0,1,-24.2355,-117.828)">
            <rect x="24.235" y="117.828" width="569.027" height="206.652" style="fill:none;"/>
            <g transform="matrix(0.820002,0,0,0.86069,-24.3644,26.7886)">
                <path d="M296.816,143.083C296.816,129.588 285.316,118.633 271.152,118.633L107.117,118.633C92.953,118.633 81.454,129.588 81.454,143.083L81.454,312.073C81.454,325.567 92.953,336.523 107.117,336.523L271.152,336.523C285.316,336.523 296.816,325.567 296.816,312.073L296.816,143.083Z" style="fill:rgb(77,141,81);"/>
            </g>
            <g id="surface1" transform="matrix(0.463807,0,0,0.463807,-26.1927,116.812)">
                <path d="M319.469,55.289C312.355,72.395 309.984,91.871 314.051,101.188C317.098,108.469 334.035,133.875 335.73,133.875C337.762,133.875 342.844,126.254 347.246,116.602C352.328,105.59 352.328,88.992 347.414,80.184C341.488,69.684 334.711,60.539 328.277,54.441L322.18,48.684L319.469,55.289Z" style="fill:rgb(254,254,254);fill-rule:nonzero;"/>
                <path d="M411.945,87.809C402.121,89.332 382.984,100 374.176,108.809C362.828,120.156 358.254,129.813 356.055,146.75C354.02,162.84 355.547,194.852 358.594,194.852C361.813,194.852 390.266,174.863 398.734,166.566C408.391,157.082 413.473,146.07 416.352,127.949C418.891,113.215 419.566,88.652 417.535,87.809C416.688,87.469 414.316,87.469 411.945,87.809Z" style="fill:rgb(254,254,254);fill-rule:nonzero;"/>
                <path d="M245.961,115.414C246.129,150.305 261.715,169.953 299.313,182.656C314.387,187.738 318.453,188.414 319.301,185.875C320.148,183.332 313.711,159.113 309.645,149.965C303.887,136.926 302.871,135.402 296.434,128.797C289.488,121.68 261.543,107.117 251.891,105.59L245.961,104.574L245.961,115.414Z" style="fill:rgb(254,254,254);fill-rule:nonzero;"/>
                <path d="M334.883,152.848C330.477,169.273 328.105,181.301 324.383,204.168C321.84,220.086 321.332,231.941 321.672,285.805C322.18,351.691 321.5,360.328 314.559,375.063C311,382.516 297.621,396.402 293.895,396.402C292.539,396.402 291.691,397.422 292.199,398.438C292.707,400.129 298.297,400.469 315.066,399.961C347.922,399.113 370.789,402.84 406.867,415.375C424.648,421.641 428.883,422.656 428.883,420.625C428.883,419.777 426.684,417.914 424.141,416.391C413.133,409.953 389.758,384.379 380.781,369.305C365.707,344.066 357.07,321.203 347.246,282.078C341.828,259.891 338.777,225.848 338.609,186.719C338.609,152.168 337.594,143.023 334.883,152.848Z" style="fill:rgb(254,254,254);fill-rule:nonzero;"/>
                <path d="M424.648,168.09C421.941,169.105 417.027,170.801 413.809,171.984C404.832,175.203 388.402,189.094 378.07,201.965C372.992,208.57 367.91,214.668 367.063,215.684C366.047,216.867 362.66,221.273 359.609,225.676C353.176,234.652 353.852,237.703 362.488,239.395C365.031,239.902 371.637,241.43 377.227,242.953C389.25,246 414.824,246.508 421.602,243.801C436.844,237.531 445.145,232.621 453.613,225C467.5,212.297 496.801,170.121 493.754,167.074C491.891,165.379 430.07,166.227 424.648,168.09Z" style="fill:rgb(254,254,254);fill-rule:nonzero;"/>
                <path d="M233.766,192.648C229.363,193.328 183.973,215.684 180.922,218.563C178.043,221.441 184.816,226.523 204.125,236.008C229.023,248.371 239.695,251.422 255.445,250.406C273.398,249.219 286.273,242.445 308.461,222.629C315.402,216.359 314.559,213.988 303.211,209.246C299.145,207.723 293.895,205.184 291.184,203.828C288.645,202.473 279.836,199.086 271.875,196.375C257.816,191.633 247.148,190.617 233.766,192.648Z" style="fill:rgb(254,254,254);fill-rule:nonzero;"/>
                <path d="M294.234,259.891C261.035,278.012 249.348,290.887 242.742,316.289C241.727,320.355 240.203,326.453 239.188,329.84C238.34,333.398 237.152,341.527 236.477,347.965L235.461,359.648L240.035,358.465C242.574,357.785 248.164,355.586 252.566,353.555C294.063,334.246 311.34,309.855 310.152,271.914C309.816,259.551 308.289,254.133 305.41,254.133C304.902,254.133 299.82,256.672 294.234,259.891Z" style="fill:rgb(254,254,254);fill-rule:nonzero;"/>
                <path d="M352.668,265.309C352.668,271.066 364.691,292.918 371.637,299.691C382.645,310.531 399.75,316.969 416.688,316.629C429.391,316.461 448.363,312.566 447.855,310.191C447.344,307.652 431.934,287.496 424.82,279.875C412.961,267.172 399.242,262.77 370.957,262.602C355.039,262.602 352.668,262.938 352.668,265.309Z" style="fill:rgb(254,254,254);fill-rule:nonzero;"/>
            </g>
        </g>
        <g>
            <g transform="matrix(1,0,0,1,251.648,133.427)">
                <text x="0px" y="0px" style="font-family:'Chalkboard', cursive;font-size:95.634px;fill:rgb(77,141,81);">Gr</text>
            </g>
            <g transform="matrix(1,0,0,1,359.54,133.427)">
                <text x="0px" y="0px" style="font-family:'Chalkboard', cursive;font-size:95.634px;fill:rgb(77,141,81);">i<tspan x="23.988px 67.736px 113.81px 157.558px " y="0px 0px 0px 0px ">vety</tspan></text>
            </g>
        </g>
    </g>
</svg>
