<?xml version="1.0" encoding="UTF-8" standalone="no"?>
<!DOCTYPE svg PUBLIC "-//W3C//DTD SVG 1.1//EN" "http://www.w3.org/Graphics/SVG/1.1/DTD/svg11.dtd">
<svg width="100%" height="100%" viewBox="0 0 1068 156" version="1.1" xmlns="http://www.w3.org/2000/svg" xmlns:xlink="http://www.w3.org/1999/xlink" xml:space="preserve" xmlns:serif="http://www.serif.com/" style="fill-rule:evenodd;clip-rule:evenodd;stroke-linejoin:round;stroke-miterlimit:2;">
    <g id="Flat" transform="matrix(0.306593,0,0,0.306593,307.157,7.27442)">
        <g transform="matrix(1,0,0,1,66.4648,-18.0798)">
            <path d="M312,256L488,24L256,200L272,128L152,248L144,184L45.6,315.2C31.582,333.891 24,356.636 24,380C24,439.247 72.753,488 132,488L138.506,488C162.786,488 186.371,479.812 205.428,464.767L328,368L264,360L384,240L312,256Z" style="fill:rgb(249,133,0);fill-rule:nonzero;"/>
        </g>
        <g transform="matrix(1,0,0,1,66.4648,-18.0798)">
            <circle cx="136" cy="376" r="72" style="fill:rgb(255,186,64);"/>
        </g>
        <g transform="matrix(1,0,0,1,66.4648,-18.0798)">
            <rect x="168" y="368" width="16" height="16" style="fill:rgb(252,166,27);"/>
        </g>
        <g transform="matrix(1,0,0,1,66.4648,-18.0798)">
            <rect x="144" y="400" width="16" height="16" style="fill:rgb(252,166,27);"/>
        </g>
        <g transform="matrix(1,0,0,1,66.4648,-18.0798)">
            <g transform="matrix(0.577,-0.817,0.817,0.577,16.519,231.878)">
                <rect x="148.765" y="92" width="166.469" height="16" style="fill:rgb(255,186,64);"/>
            </g>
            <g transform="matrix(0.811,-0.585,0.585,0.811,-43.661,324.523)">
                <rect x="470.132" y="221.778" width="19.737" height="15.999" style="fill:rgb(255,186,64);"/>
            </g>
            <g transform="matrix(0.811,-0.585,0.585,0.811,-92.633,288.623)">
                <rect x="330.922" y="279.556" width="138.156" height="15.999" style="fill:rgb(255,186,64);"/>
            </g>
            <g transform="matrix(0.547,-0.837,0.837,0.547,56.864,177.123)">
                <rect x="177.816" y="28" width="28.675" height="15.999" style="fill:rgb(255,186,64);"/>
            </g>
            <g transform="matrix(0.547,-0.837,0.837,0.547,-68.163,166.693)">
                <rect x="17.67" y="138.353" width="204.66" height="15.999" style="fill:rgb(255,186,64);"/>
            </g>
            <g transform="matrix(0.879,-0.476,0.476,0.879,-124.818,244.542)">
                <rect x="351.763" y="360.5" width="136.473" height="16" style="fill:rgb(255,186,64);"/>
            </g>
            <g transform="matrix(0.879,-0.476,0.476,0.879,-164.206,201.806)">
                <rect x="284.156" y="416.833" width="63.688" height="16" style="fill:rgb(255,186,64);"/>
            </g>
            <g transform="matrix(0.676,-0.737,0.737,0.676,77.833,286.018)">
                <rect x="322.563" y="46.545" width="82.874" height="16" style="fill:rgb(255,186,64);"/>
            </g>
            <g transform="matrix(0.676,-0.737,0.737,0.676,22.538,267.232)">
                <rect x="298.721" y="100" width="32.558" height="16" style="fill:rgb(255,186,64);"/>
            </g>
            <g transform="matrix(0.737,-0.676,0.676,0.737,29.541,352.609)">
                <rect x="440.869" y="130.333" width="54.263" height="16.001" style="fill:rgb(255,186,64);"/>
            </g>
            <g transform="matrix(0.737,-0.676,0.676,0.737,-18.263,329.052)">
                <rect x="384.22" y="180" width="59.196" height="16.001" style="fill:rgb(255,186,64);"/>
            </g>
        </g>
        <g transform="matrix(0.707,-0.707,0.707,0.707,-28.8092,209.589)">
            <rect x="209.017" y="220.833" width="36.298" height="16" style="fill:rgb(240,120,0);"/>
        </g>
        <g transform="matrix(0.707,-0.707,0.707,0.707,-70.3122,192.399)">
            <rect x="160.682" y="262.333" width="49.969" height="16" style="fill:rgb(240,120,0);"/>
        </g>
        <g transform="matrix(0.707,-0.707,0.707,0.707,36.4308,269.416)">
            <rect x="315.029" y="172" width="33.941" height="16" style="fill:rgb(240,120,0);"/>
        </g>
        <g transform="matrix(0.707,-0.707,0.707,0.707,-33.4072,240.49)">
            <rect x="196.877" y="241.833" width="130.579" height="16" style="fill:rgb(240,120,0);"/>
        </g>
        <g transform="matrix(0.707,-0.707,0.707,0.707,-61.8392,261.519)">
            <rect x="241.278" y="286.667" width="64.111" height="16" style="fill:rgb(240,120,0);"/>
        </g>
        <g transform="matrix(0.707,-0.707,0.707,0.707,-103.842,244.122)">
            <rect x="220.963" y="328.667" width="20.742" height="16" style="fill:rgb(240,120,0);"/>
        </g>
        <g transform="matrix(3.01535,0,0,3.01535,606.151,374.195)">
            <text x="0px" y="0px" style="font-family:'ArialMT', 'Arial', sans-serif;font-size:94.232px;fill:url(#_Linear1);">Mediaor</text>
        </g>
    </g>
    <defs>
        <linearGradient id="_Linear1" x1="0" y1="0" x2="1" y2="0" gradientUnits="userSpaceOnUse" gradientTransform="matrix(288.032,0,0,288.032,177.217,264.038)"><stop offset="0" style="stop-color:rgb(240,120,0);stop-opacity:1"/><stop offset="1" style="stop-color:rgb(255,186,64);stop-opacity:1"/></linearGradient>
    </defs>
</svg>
