<svg xmlns="http://www.w3.org/2000/svg" style="display: none;">

<symbol id='cleanSoils' viewBox="0 0 675 112.499997" >
<g id="surface1">
<path style=" stroke:none;fill-rule:nonzero;fill:rgb(28.239441%,69.40918%,86.268616%);fill-opacity:1;" d="M 44.175781 94.171875 C 36.035156 94.171875 26.457031 92.445312 19.765625 86.050781 C 12.964844 79.464844 9.257812 69.050781 9.257812 58.835938 C 9.257812 37.445312 23.679688 23.5 43.65625 23.5 C 65.289062 23.5 72.703125 39.734375 72.703125 43.082031 C 72.703125 44.800781 71.46875 47.089844 68.683594 47.089844 C 65.699219 47.089844 63.949219 43.9375 62.507812 41.457031 C 60.652344 38.113281 57.765625 35.339844 54.574219 33.53125 C 52.414062 32.289062 49.117188 30.855469 44.070312 30.855469 C 33.773438 30.855469 19.351562 36.773438 19.351562 59.214844 C 19.351562 81.660156 33.5625 86.816406 43.246094 86.816406 C 53.957031 86.816406 61.0625 81.371094 64.671875 71.824219 C 65.394531 70.007812 66.214844 67.910156 69.09375 67.910156 C 71.058594 67.910156 73.320312 69.242188 73.320312 71.730469 C 73.320312 77.554688 65.289062 94.171875 44.175781 94.171875 "/>
<path style=" stroke:none;fill-rule:nonzero;fill:rgb(28.239441%,69.40918%,86.268616%);fill-opacity:1;" d="M 128.4375 85.667969 C 131.527344 85.667969 135.339844 85.574219 135.339844 89.394531 C 135.339844 93.214844 131.632812 93.023438 128.4375 93.023438 L 95.582031 93.023438 C 88.164062 93.023438 87.34375 92.261719 87.34375 85.382812 L 87.34375 31.050781 C 87.34375 27.800781 87.34375 26.082031 88.578125 24.933594 C 89.300781 24.265625 90.535156 23.5 92.1875 23.5 C 93.527344 23.5 94.964844 23.980469 95.894531 24.933594 C 97.234375 26.082031 97.234375 27.898438 97.234375 31.050781 L 97.234375 85.667969 Z M 128.4375 85.667969 "/>
<path style=" stroke:none;fill-rule:nonzero;fill:rgb(28.239441%,69.40918%,86.268616%);fill-opacity:1;" d="M 156.566406 53.96875 L 188.089844 53.96875 C 191.074219 53.96875 194.675781 53.96875 194.675781 57.597656 C 194.675781 61.316406 191.171875 61.316406 188.089844 61.316406 L 156.566406 61.316406 L 156.566406 85.667969 L 192.308594 85.667969 C 195.300781 85.667969 199.105469 85.574219 199.105469 89.296875 C 199.105469 93.117188 195.398438 93.023438 192.308594 93.023438 L 154.921875 93.023438 C 150.492188 93.023438 149.667969 93.023438 148.125 91.683594 C 146.675781 90.445312 146.675781 89.203125 146.675781 85.382812 L 146.675781 32.289062 C 146.675781 28.945312 146.578125 27.515625 148.015625 26.082031 C 149.355469 24.742188 150.597656 24.648438 154.921875 24.648438 L 190.867188 24.648438 C 193.851562 24.648438 197.667969 24.554688 197.667969 28.277344 C 197.667969 32.097656 193.960938 32.003906 190.867188 32.003906 L 156.566406 32.003906 Z M 156.566406 53.96875 "/>
<path style=" stroke:none;fill-rule:nonzero;fill:rgb(28.239441%,69.40918%,86.268616%);fill-opacity:1;" d="M 251.753906 65.902344 L 237.949219 33.914062 L 224.664062 65.902344 Z M 221.886719 73.257812 L 215.496094 88.53125 C 213.953125 92.160156 213.226562 94.171875 209.832031 94.171875 C 207.152344 94.171875 205.097656 92.070312 205.097656 90.15625 C 205.097656 88.726562 205.605469 87.578125 206.535156 85.382812 L 229.917969 31.621094 C 232.179688 26.273438 233.3125 23.5 238.054688 23.5 C 239.90625 23.5 241.96875 24.265625 243 25.410156 C 244.027344 26.464844 245.367188 29.425781 246.296875 31.527344 L 270.5 84.996094 C 271.527344 87.386719 272.046875 88.53125 272.046875 89.964844 C 272.046875 91.785156 270.082031 94.171875 267.097656 94.171875 C 263.699219 94.171875 262.976562 92.160156 261.332031 88.339844 L 254.738281 73.257812 Z M 221.886719 73.257812 "/>
<path style=" stroke:none;fill-rule:nonzero;fill:rgb(28.239441%,69.40918%,86.268616%);fill-opacity:1;" d="M 331.28125 30.855469 C 331.171875 27.898438 331.171875 26.9375 331.898438 25.695312 C 332.414062 24.648438 333.960938 23.5 335.917969 23.5 C 337.257812 23.5 338.488281 23.980469 339.410156 24.839844 C 340.75 25.988281 340.75 27.707031 340.75 30.855469 L 340.75 84.90625 C 340.75 89.585938 340.75 91.207031 338.695312 92.832031 C 337.5625 93.695312 336.222656 94.171875 334.675781 94.171875 C 331.484375 94.171875 330.457031 92.730469 327.464844 88.625 L 291.519531 38.875 L 291.929688 86.816406 C 291.929688 89.871094 291.929688 90.730469 291.316406 91.976562 C 290.796875 93.023438 289.152344 94.171875 287.195312 94.171875 C 285.960938 94.171875 284.621094 93.695312 283.691406 92.832031 C 282.351562 91.683594 282.351562 89.964844 282.351562 86.816406 L 282.351562 32.382812 C 282.351562 27.707031 282.351562 26.464844 284.308594 24.839844 C 284.722656 24.457031 285.960938 23.5 288.222656 23.5 C 291.207031 23.5 292.242188 24.933594 295.023438 28.847656 L 331.589844 79.464844 Z M 331.28125 30.855469 "/>
<path style=" stroke:none;fill-rule:nonzero;fill:rgb(28.239441%,69.40918%,86.268616%);fill-opacity:1;" d="M 406.269531 93.15625 C 399.261719 93.15625 390.8125 91.71875 385.253906 86.46875 C 381.136719 82.550781 378.660156 77.019531 378.660156 72.90625 C 378.660156 70.902344 380.519531 68.992188 382.984375 68.992188 C 385.765625 68.992188 386.386719 70.523438 388.140625 75.007812 C 389.375 78.160156 392.359375 86.179688 405.644531 86.179688 C 414.8125 86.179688 423.980469 81.785156 423.980469 73.382812 C 423.980469 64.507812 414.300781 62.40625 409.148438 61.351562 C 395.554688 58.585938 392.054688 57.722656 387.515625 54.476562 C 384.941406 52.566406 380.617188 48.460938 380.617188 41.105469 C 380.617188 28.503906 392.464844 22.394531 405.75 22.394531 C 413.371094 22.394531 423.253906 24.203125 428.203125 32.132812 C 429.542969 34.328125 430.570312 37.097656 430.570312 39.195312 C 430.570312 41.207031 428.921875 43.6875 426.140625 43.6875 C 423.058594 43.6875 422.128906 41.296875 421.304688 39.101562 C 420.269531 36.335938 419.347656 34.234375 416.257812 32.132812 C 413.683594 30.414062 409.664062 29.363281 405.4375 29.363281 C 395.859375 29.363281 390.097656 34.519531 390.097656 40.15625 C 390.097656 48.175781 399.261719 50.179688 406.46875 51.804688 C 418.527344 54.476562 422.949219 56.101562 426.765625 58.777344 C 431.296875 61.925781 433.457031 67.945312 433.457031 72.140625 C 433.457031 83.503906 424.191406 93.15625 406.269531 93.15625 "/>
<path style=" stroke:none;fill-rule:nonzero;fill:rgb(28.239441%,69.40918%,86.268616%);fill-opacity:1;" d="M 536.9375 85.972656 C 536.9375 89.214844 536.9375 90.933594 535.597656 92.082031 C 534.878906 92.75 533.640625 93.515625 531.992188 93.515625 C 530.761719 93.515625 529.3125 93.035156 528.390625 92.179688 C 527.046875 90.933594 527.046875 89.214844 527.046875 85.972656 L 527.046875 30.394531 C 527.046875 27.148438 527.046875 25.429688 528.390625 24.285156 C 529.109375 23.613281 530.242188 22.851562 531.992188 22.851562 C 533.226562 22.851562 534.671875 23.328125 535.597656 24.285156 C 536.9375 25.429688 536.9375 27.242188 536.9375 30.394531 Z M 536.9375 85.972656 "/>
<path style=" stroke:none;fill-rule:nonzero;fill:rgb(28.239441%,69.40918%,86.268616%);fill-opacity:1;" d="M 596.785156 85.015625 C 599.878906 85.015625 603.6875 84.925781 603.6875 88.738281 C 603.6875 92.558594 599.976562 92.375 596.785156 92.375 L 563.925781 92.375 C 556.515625 92.375 555.6875 91.605469 555.6875 84.730469 L 555.6875 30.394531 C 555.6875 27.148438 555.6875 25.429688 556.921875 24.285156 C 557.644531 23.613281 558.878906 22.851562 560.53125 22.851562 C 561.871094 22.851562 563.308594 23.328125 564.238281 24.285156 C 565.578125 25.429688 565.578125 27.242188 565.578125 30.394531 L 565.578125 85.015625 Z M 596.785156 85.015625 "/>
<path style=" stroke:none;fill-rule:nonzero;fill:rgb(28.239441%,69.40918%,86.268616%);fill-opacity:1;" d="M 639.234375 93.613281 C 632.226562 93.613281 623.777344 92.179688 618.21875 86.929688 C 614.101562 83.015625 611.625 77.476562 611.625 73.371094 C 611.625 71.359375 613.484375 69.457031 615.949219 69.457031 C 618.730469 69.457031 619.351562 70.980469 621.105469 75.464844 C 622.339844 78.617188 625.324219 86.640625 638.609375 86.640625 C 647.777344 86.640625 656.945312 82.25 656.945312 73.847656 C 656.945312 64.964844 647.265625 62.863281 642.113281 61.816406 C 628.519531 59.042969 625.019531 58.1875 620.480469 54.9375 C 617.90625 53.027344 613.582031 48.917969 613.582031 41.570312 C 613.582031 28.960938 625.429688 22.851562 638.714844 22.851562 C 646.335938 22.851562 656.21875 24.667969 661.167969 32.589844 C 662.507812 34.785156 663.535156 37.558594 663.535156 39.660156 C 663.535156 41.664062 661.886719 44.144531 659.105469 44.144531 C 656.023438 44.144531 655.09375 41.753906 654.269531 39.558594 C 653.242188 36.792969 652.3125 34.691406 649.222656 32.589844 C 646.648438 30.871094 642.628906 29.824219 638.402344 29.824219 C 628.832031 29.824219 623.0625 34.976562 623.0625 40.613281 C 623.0625 48.632812 632.226562 50.636719 639.4375 52.261719 C 651.492188 54.9375 655.914062 56.5625 659.730469 59.234375 C 664.261719 62.386719 666.421875 68.402344 666.421875 72.601562 C 666.421875 83.96875 657.15625 93.613281 639.234375 93.613281 "/>
<path style=" stroke:none;fill-rule:nonzero;fill:rgb(45.489502%,76.469421%,17.248535%);fill-opacity:1;" d="M 439.480469 19.699219 C 439.480469 19.699219 458.332031 23.757812 485.316406 24.988281 C 511.4375 26.175781 523.523438 62.789062 511.019531 81.980469 C 511.019531 81.980469 482.230469 48.933594 464.601562 41.734375 C 464.601562 41.734375 503.824219 79.632812 505.296875 86.683594 C 505.296875 86.683594 443.453125 125.023438 439.480469 19.699219 "/>
</g>
</symbol>

<symbol  viewBox="0 0 74 140" id='mongodb'>
    <defs></defs>
    <g stroke="none" stroke-width="1" fill="none" fill-rule="evenodd">
        <g>
           
            <g>
                <path d="M35.0534362,142.317005 L31.2699893,141.024486 C31.2699893,141.024486 31.7319117,121.737713 24.8108459,120.353673 C20.1968021,115.001416 25.5490584,-106.659184 42.1592709,119.61546 C42.1592709,119.61546 36.43834,122.475926 35.4229741,127.367123 C34.3152237,132.165936 35.0534362,142.317005 35.0534362,142.317005 L35.0534362,142.317005 L35.0534362,142.317005 Z" fill="#FFFFFF"></path>
                <path d="M35.0534362,142.317005 L31.2699893,141.024486 C31.2699893,141.024486 31.7319117,121.737713 24.8108459,120.353673 C20.1968021,115.001416 25.5490584,-106.659184 42.1592709,119.61546 C42.1592709,119.61546 36.43834,122.475926 35.4229741,127.367123 C34.3152237,132.165936 35.0534362,142.317005 35.0534362,142.317005 L35.0534362,142.317005 L35.0534362,142.317005 Z" fill="#5db9f7"></path>
                <path d="M37.0841679,123.676061 C37.0841679,123.676061 70.2130718,101.897497 62.461409,56.5867926 C54.9868998,23.6426576 37.360458,12.8457605 35.422974,8.69277572 C33.3007211,5.7399258 31.2699892,0.572438448 31.2699892,0.572438448 L32.6548931,92.2074874 C32.6548931,92.2998718 29.7935642,120.261288 37.0841679,123.676061" fill="#FFFFFF"></path>
                <path d="M37.0841679,123.676061 C37.0841679,123.676061 70.2130718,101.897497 62.461409,56.5867926 C54.9868998,23.6426576 37.360458,12.8457605 35.422974,8.69277572 C33.3007211,5.7399258 31.2699892,0.572438448 31.2699892,0.572438448 L32.6548931,92.2074874 C32.6548931,92.2998718 29.7935642,120.261288 37.0841679,123.676061" fill="#5db9f7"></path>
                <path d="M29.332506,124.875332 C29.332506,124.875332 -1.76652951,103.650212 0.0794333896,66.2768026 C1.8321484,28.9025296 23.7954806,10.5387386 28.0399866,7.21635076 C30.8089308,4.26350084 30.9013154,3.15575042 31.0860844,0.202900506 C33.0235682,4.35588532 32.6548938,62.3085868 32.9311838,69.1372682 C33.7617808,95.4374908 31.4547588,119.892614 29.332506,124.875332 L29.332506,124.875332 L29.332506,124.875332 Z" fill="#FFFFFF"></path>
                <path d="M29.332506,124.875332 C29.332506,124.875332 -1.76652951,103.650212 0.0794333896,66.2768026 C1.8321484,28.9025296 23.7954806,10.5387386 28.0399866,7.21635076 C30.8089308,4.26350084 30.9013154,3.15575042 31.0860844,0.202900506 C33.0235682,4.35588532 32.6548938,62.3085868 32.9311838,69.1372682 C33.7617808,95.4374908 31.4547588,119.892614 29.332506,124.875332 L29.332506,124.875332 L29.332506,124.875332 Z" fill="#5db9f7"></path>
            </g>
        </g>
    </g>
</symbol>
<symbol id='redux' viewBox="0 0 256 244" version="1.1">
    <g>
        <path d="M177.380953,169.732752 C186.828305,168.755405 193.995262,160.610839 193.669491,150.83736 C193.34372,141.063881 185.199451,133.245097 175.426328,133.245097 L174.774787,133.245097 C164.675893,133.57088 156.857395,142.041229 157.183166,152.14049 C157.508937,157.02723 159.463561,161.262404 162.395498,164.194448 C151.319292,186.021884 134.379213,201.985233 108.969093,215.342321 C91.7032429,224.464235 73.7858511,227.722061 55.8684592,225.441583 C41.208775,223.486887 29.8067984,216.971234 22.6398417,206.220408 C12.2151773,190.257058 11.237865,172.990579 20.0336756,155.724099 C26.22332,143.344359 35.9964428,134.222445 42.1860873,129.661488 C40.8830043,125.426314 38.9283797,118.259096 37.9510674,113.046574 C-9.28569288,147.253751 -4.39913147,193.514885 9.934782,215.342321 C20.6852171,231.631453 42.5118581,241.730715 66.6188943,241.730715 C73.1343096,241.730715 79.6497248,241.079149 86.16514,239.450236 C127.863797,231.30567 159.463561,206.54619 177.380953,169.732752 Z M234.716607,129.335706 C209.958029,100.341051 173.471704,84.3777023 131.773046,84.3777023 L126.560714,84.3777023 C123.628777,78.5136149 117.439133,74.6042233 110.597947,74.6042233 L109.946406,74.6042233 C99.8475119,74.9300059 92.0290137,83.4003544 92.3547844,93.499616 C92.6805552,103.273095 100.824824,111.091878 110.597947,111.091878 L111.249489,111.091878 C118.416445,110.766096 124.60609,106.205139 127.212256,100.015269 L133.07613,100.015269 C157.834707,100.015269 181.290202,107.182487 202.465302,121.19114 C218.75384,131.941967 230.481587,145.95062 236.997002,162.891317 C242.535105,176.574188 242.209334,189.931276 236.345461,201.333668 C227.223879,218.600148 211.912654,228.047844 191.714866,228.047844 C178.684036,228.047844 166.304747,224.138452 159.789332,221.206409 C156.205854,224.464235 149.690438,229.676757 145.129648,232.934584 C159.13779,239.450236 173.471704,243.033845 187.154076,243.033845 C218.428069,243.033845 241.557793,225.767366 250.353603,208.500886 C259.800955,189.605493 259.149414,157.02723 234.716607,129.335706 Z M69.2250604,175.271057 C69.5508312,185.044536 77.6951002,192.86332 87.468223,192.86332 L88.1197645,192.86332 C98.2186581,192.537537 106.037156,184.067188 105.711386,173.967927 C105.385615,164.194448 97.2413458,156.375664 87.468223,156.375664 L86.8166815,156.375664 C86.16514,156.375664 85.1878277,156.375664 84.5362862,156.701447 C71.179685,134.548228 65.6415821,110.440313 67.5962066,84.3777023 C68.8992897,64.8307442 75.4147049,47.8900472 86.8166815,33.881394 C96.2640336,21.8274365 114.507196,15.9633491 126.886485,15.6375664 C161.418186,14.9860012 176.07787,57.9893089 177.055182,75.2557885 C181.290202,76.2331364 188.457159,78.5136149 193.34372,80.142528 C189.434471,27.3657413 156.857395,0 125.583402,0 C96.2640336,0 69.2250604,21.1758712 58.4746253,52.4510041 C43.4891703,94.1511813 53.2622932,134.222445 71.5054558,165.823361 C69.876602,168.103839 68.8992897,171.687448 69.2250604,175.271057 Z" fill="#5db9f7"></path>
    </g>
</symbol>
<symbol  viewBox="0 0 504 504" id='node'><path d="M452.2,251.6c-9.2,58.5-27.1,75.6-58.8,114.9c-31.7,33.3-77.3,88.9-141.9,85.8  c-58.5-9.2-75.6-27.1-114.9-58.8c-33.3-31.7-88.9-77.3-85.8-141.9c9.2-58.5,27.1-75.6,58.8-114.9c31.7-33.3,77.3-88.9,141.9-85.8  c58.5,9.2,75.6,27.1,114.9,58.8C399.7,141.4,455.3,187,452.2,251.6z" fill="#5db9f7"/><path d="M251.6,368.5c-3.1,0-6.2-0.8-8.9-2.4l-28.2-16.7c-4.2-2.4-2.2-3.2-0.8-3.7c5.6-2,6.8-2.4,12.8-5.8  c0.6-0.4,1.5-0.2,2.1,0.2l21.7,12.9c0.8,0.4,1.9,0.4,2.6,0l84.5-48.8c0.8-0.4,1.3-1.4,1.3-2.3v-97.5c0-1-0.5-1.8-1.3-2.3l-84.5-48.7  c-0.8-0.5-1.8-0.5-2.6,0l-84.4,48.7c-0.8,0.5-1.3,1.4-1.3,2.3v97.5c0,0.9,0.5,1.8,1.3,2.3l23.1,13.4c12.6,6.3,20.2-1.1,20.2-8.5  v-96.3c0-1.4,1.1-2.4,2.5-2.4h10.7c1.3,0,2.4,1.1,2.4,2.4V309c0,16.8-9.1,26.4-25,26.4c-4.9,0-8.7,0-19.5-5.3l-22.2-12.8  c-5.5-3.2-8.9-9.1-8.9-15.4v-97.5c0-6.3,3.4-12.2,8.9-15.4l84.5-48.8c5.3-3,12.5-3,17.8,0l84.5,48.8c5.5,3.2,8.9,9.1,8.9,15.4v97.5  c0,6.3-3.4,12.2-8.9,15.4l-84.5,48.8C257.8,367.6,254.7,368.5,251.6,368.5z" fill="#FFFFFF"/><path d="M277.7,301.3c-37,0-44.7-17-44.7-31.2c0-1.4,1.1-2.4,2.4-2.4h10.9c1.2,0,2.2,0.9,2.4,2.1  c1.6,11.1,6.6,16.7,28.9,16.7c17.8,0,25.4-4,25.4-13.5c0-5.4-2.1-9.5-29.8-12.2c-23.1-2.3-37.4-7.4-37.4-25.9  c0-17,14.4-27.2,38.5-27.2c27.1,0,40.5,9.4,42.2,29.5c0.1,0.7-0.2,1.4-0.6,1.9c-0.5,0.5-1.1,0.8-1.8,0.8h-11c-1.1,0-2.1-0.8-2.4-1.9  c-2.6-11.7-9-15.4-26.4-15.4c-19.4,0-21.7,6.8-21.7,11.8c0,6.1,2.7,7.9,28.9,11.4c26,3.4,38.3,8.3,38.3,26.5  C319.8,290.7,304.4,301.3,277.7,301.3z" fill="#FFFFFF"/></symbol><symbol  viewBox="0 0 256 228" id='react'>
    <g>
        <path d="M210.483381,73.8236374 C207.827698,72.9095503 205.075867,72.0446761 202.24247,71.2267368 C202.708172,69.3261098 203.135596,67.4500894 203.515631,65.6059664 C209.753843,35.3248922 205.675082,10.9302478 191.747328,2.89849283 C178.392359,-4.80289661 156.551327,3.22703567 134.492936,22.4237776 C132.371761,24.2697233 130.244662,26.2241201 128.118477,28.2723861 C126.701777,26.917204 125.287358,25.6075897 123.876584,24.3549348 C100.758745,3.82852863 77.5866802,-4.82157937 63.6725966,3.23341515 C50.3303869,10.9571328 46.3792156,33.8904224 51.9945178,62.5880206 C52.5367729,65.3599011 53.1706189,68.1905639 53.8873982,71.068617 C50.6078941,71.9995641 47.4418534,72.9920277 44.4125156,74.0478303 C17.3093297,83.497195 0,98.3066828 0,113.667995 C0,129.533287 18.5815786,145.446423 46.8116526,155.095373 C49.0394553,155.856809 51.3511025,156.576778 53.7333796,157.260293 C52.9600965,160.37302 52.2875179,163.423318 51.7229345,166.398431 C46.3687351,194.597975 50.5500231,216.989464 63.8566899,224.664425 C77.6012619,232.590464 100.66852,224.443422 123.130185,204.809231 C124.905501,203.257196 126.687196,201.611293 128.472081,199.886102 C130.785552,202.113904 133.095375,204.222319 135.392897,206.199955 C157.14963,224.922338 178.637969,232.482469 191.932332,224.786092 C205.663234,216.837268 210.125675,192.78347 204.332202,163.5181 C203.88974,161.283006 203.374826,158.99961 202.796573,156.675661 C204.416503,156.196743 206.006814,155.702335 207.557482,155.188332 C236.905331,145.46465 256,129.745175 256,113.667995 C256,98.2510906 238.132466,83.3418093 210.483381,73.8236374 L210.483381,73.8236374 Z M204.118035,144.807565 C202.718197,145.270987 201.281904,145.718918 199.818271,146.153177 C196.578411,135.896354 192.205739,124.989735 186.854729,113.72131 C191.961041,102.721277 196.164656,91.9540963 199.313837,81.7638014 C201.93261,82.5215915 204.474374,83.3208483 206.923636,84.1643056 C230.613348,92.3195488 245.063763,104.377206 245.063763,113.667995 C245.063763,123.564379 229.457753,136.411268 204.118035,144.807565 L204.118035,144.807565 Z M193.603754,165.642007 C196.165567,178.582766 196.531475,190.282717 194.834536,199.429057 C193.309843,207.64764 190.243595,213.12715 186.452366,215.321689 C178.384612,219.991462 161.131788,213.921395 142.525146,197.909832 C140.392124,196.074366 138.243609,194.114502 136.088259,192.040261 C143.301619,184.151133 150.510878,174.979732 157.54698,164.793993 C169.922699,163.695814 181.614905,161.900447 192.218042,159.449363 C192.740247,161.555956 193.204126,163.621993 193.603754,165.642007 L193.603754,165.642007 Z M87.2761866,214.514686 C79.3938934,217.298414 73.1160375,217.378157 69.3211631,215.189998 C61.2461189,210.532528 57.8891498,192.554265 62.4682434,168.438039 C62.9927272,165.676183 63.6170041,162.839142 64.3365173,159.939216 C74.8234575,162.258154 86.4299951,163.926841 98.8353334,164.932519 C105.918826,174.899534 113.336329,184.06091 120.811247,192.08264 C119.178102,193.65928 117.551336,195.16028 115.933685,196.574699 C106.001303,205.256705 96.0479605,211.41654 87.2761866,214.514686 L87.2761866,214.514686 Z M50.3486141,144.746959 C37.8658105,140.48046 27.5570398,134.935332 20.4908634,128.884403 C14.1414664,123.446815 10.9357817,118.048415 10.9357817,113.667995 C10.9357817,104.34622 24.8334611,92.4562517 48.0123604,84.3748281 C50.8247961,83.3942121 53.7689223,82.4701001 56.8242337,81.6020363 C60.0276398,92.0224477 64.229889,102.917218 69.3011135,113.93411 C64.1642716,125.11459 59.9023288,136.182975 56.6674809,146.725506 C54.489347,146.099407 52.3791089,145.440499 50.3486141,144.746959 L50.3486141,144.746959 Z M62.7270678,60.4878073 C57.9160346,35.9004118 61.1112387,17.3525532 69.1516515,12.6982729 C77.7160924,7.74005624 96.6544653,14.8094222 116.614922,32.5329619 C117.890816,33.6657739 119.171723,34.8514442 120.456275,36.0781256 C113.018267,44.0647686 105.66866,53.1573386 98.6480514,63.0655695 C86.6081646,64.1815215 75.0831931,65.9741531 64.4868907,68.3746571 C63.8206914,65.6948233 63.2305903,63.0619242 62.7270678,60.4878073 L62.7270678,60.4878073 Z M173.153901,87.7550367 C170.620796,83.3796304 168.020249,79.1076627 165.369124,74.9523483 C173.537126,75.9849113 181.362914,77.3555864 188.712066,79.0329319 C186.505679,86.1041206 183.755673,93.4974728 180.518546,101.076741 C178.196419,96.6680702 175.740322,92.2229454 173.153901,87.7550367 L173.153901,87.7550367 Z M128.122121,43.8938899 C133.166461,49.3588189 138.218091,55.4603279 143.186789,62.0803968 C138.179814,61.8439007 133.110868,61.720868 128.000001,61.720868 C122.937434,61.720868 117.905854,61.8411667 112.929865,62.0735617 C117.903575,55.515009 122.99895,49.4217021 128.122121,43.8938899 L128.122121,43.8938899 Z M82.8018984,87.830679 C80.2715265,92.2183886 77.8609975,96.6393627 75.5753239,101.068539 C72.3906004,93.5156998 69.6661103,86.0886276 67.440586,78.9171899 C74.7446255,77.2826781 82.5335049,75.9461789 90.6495601,74.9332099 C87.9610684,79.1268011 85.3391054,83.4302106 82.8018984,87.8297677 L82.8018984,87.830679 L82.8018984,87.830679 Z M90.8833221,153.182899 C82.4979621,152.247395 74.5919739,150.979704 67.289757,149.390303 C69.5508242,142.09082 72.3354636,134.505173 75.5876271,126.789657 C77.8792246,131.215644 80.2993228,135.638441 82.8451877,140.03572 L82.8456433,140.03572 C85.4388987,144.515476 88.1255676,148.90364 90.8833221,153.182899 L90.8833221,153.182899 Z M128.424691,184.213105 C123.24137,178.620587 118.071264,172.434323 113.021912,165.780078 C117.923624,165.972373 122.921029,166.0708 128.000001,166.0708 C133.217953,166.0708 138.376211,165.953235 143.45336,165.727219 C138.468257,172.501308 133.434855,178.697141 128.424691,184.213105 L128.424691,184.213105 Z M180.622896,126.396409 C184.044571,134.195313 186.929004,141.741317 189.219234,148.9164 C181.796719,150.609693 173.782736,151.973534 165.339049,152.986959 C167.996555,148.775595 170.619884,144.430263 173.197646,139.960532 C175.805484,135.438399 178.28163,130.90943 180.622896,126.396409 L180.622896,126.396409 Z M163.724586,134.496971 C159.722835,141.435557 155.614455,148.059271 151.443648,154.311611 C143.847063,154.854776 135.998946,155.134562 128.000001,155.134562 C120.033408,155.134562 112.284171,154.887129 104.822013,154.402745 C100.48306,148.068386 96.285368,141.425078 92.3091341,134.556664 L92.3100455,134.556664 C88.3442923,127.706935 84.6943232,120.799333 81.3870228,113.930466 C84.6934118,107.045648 88.3338117,100.130301 92.276781,93.292874 L92.2758697,93.294241 C96.2293193,86.4385872 100.390102,79.8276317 104.688954,73.5329157 C112.302398,72.9573964 120.109505,72.6571055 127.999545,72.6571055 L128.000001,72.6571055 C135.925583,72.6571055 143.742714,72.9596746 151.353879,73.5402067 C155.587114,79.7888993 159.719645,86.3784378 163.688588,93.2350031 C167.702644,100.168578 171.389978,107.037901 174.724618,113.77508 C171.400003,120.627999 167.720871,127.566587 163.724586,134.496971 L163.724586,134.496971 Z M186.284677,12.3729198 C194.857321,17.3165548 198.191049,37.2542268 192.804953,63.3986692 C192.461372,65.0669011 192.074504,66.7661189 191.654369,68.4881206 C181.03346,66.0374921 169.500286,64.2138746 157.425315,63.0810626 C150.391035,53.0639249 143.101577,43.9572289 135.784778,36.073113 C137.751934,34.1806885 139.716356,32.3762092 141.672575,30.673346 C160.572216,14.2257007 178.236518,7.73185406 186.284677,12.3729198 L186.284677,12.3729198 Z M128.000001,90.8080696 C140.624975,90.8080696 150.859926,101.042565 150.859926,113.667995 C150.859926,126.292969 140.624975,136.527922 128.000001,136.527922 C115.375026,136.527922 105.140075,126.292969 105.140075,113.667995 C105.140075,101.042565 115.375026,90.8080696 128.000001,90.8080696 L128.000001,90.8080696 Z" fill="##5db9f7"></path>
    </g>
</symbol>
<symbol id="file-upload" viewBox="0 0 60 60"><title>file-upload</title><path d="M49,38a4,4,0,0,0,4-4V4a4,4,0,0,0-4-4H11A4,4,0,0,0,7,4V34a4,4,0,0,0,4,4H25v4H20a4,4,0,0,0-4,4V56a4,4,0,0,0,4,4H40a4,4,0,0,0,4-4V46a4,4,0,0,0-4-4H35V38ZM11,2H49a2,2,0,0,1,2,2V8H9V4A2,2,0,0,1,11,2Zm0,34a2,2,0,0,1-2-2V10H51V34a2,2,0,0,1-2,2H35V27h1.18A1.808,1.808,0,0,0,37.8,25.99a1.917,1.917,0,0,0-.175-2.019L31.439,15.73a1.834,1.834,0,0,0-2.878,0l-6.185,8.245a1.917,1.917,0,0,0-.171,2.015A1.808,1.808,0,0,0,23.82,27H25v9ZM42,46V56a2,2,0,0,1-2,2H20a2,2,0,0,1-2-2V46a2,2,0,0,1,2-2H40A2,2,0,0,1,42,46ZM27,42V26a1,1,0,0,0-1-1H24.107L30,17.143,35.94,25H34a1,1,0,0,0-1,1V42Z"/><path d="M25.832,48.445a1,1,0,0,0-1.387-.277l-3,2a1,1,0,0,0,0,1.664l3,2a1,1,0,1,0,1.11-1.664L23.8,51l1.752-1.168A1,1,0,0,0,25.832,48.445Z"/><path d="M34.168,53.555a1,1,0,0,0,1.387.277l3-2a1,1,0,0,0,0-1.664l-3-2a1,1,0,0,0-1.11,1.664L36.2,51l-1.752,1.168A1,1,0,0,0,34.168,53.555Z"/><path d="M31.316,47.052a1,1,0,0,0-1.264.632l-2,6a1,1,0,1,0,1.9.632l2-6A1,1,0,0,0,31.316,47.052Z"/><path d="M12,6h1a1,1,0,0,0,0-2H12a1,1,0,0,0,0,2Z"/><path d="M17,6h1a1,1,0,0,0,0-2H17a1,1,0,0,0,0,2Z"/><path d="M22,6h1a1,1,0,0,0,0-2H22a1,1,0,0,0,0,2Z"/><path d="M44,6h4a1,1,0,0,0,0-2H44a1,1,0,0,0,0,2Z"/></symbol><symbol id="wireframe" viewBox="1 0 511.99999 511"><title>wireframe</title><path d="m502 50.5h-153c-5.519531 0-10 4.476562-10 10s4.480469 10 10 10h143v422h-418.140625c-29.699219 0-53.859375-24.160156-53.859375-53.859375 0-23.503906 19.121094-42.628906 42.628906-42.628906 18.398438 0 33.371094 14.972656 33.371094 33.375 0 14.195312-11.550781 25.742187-25.746094 25.742187-10.726562 0-19.457031-8.726562-19.457031-19.457031 0-5.523437-4.476563-10-10-10s-10 4.476563-10 10c0 21.757813 17.699219 39.457031 39.457031 39.457031 25.226563 0 45.746094-20.519531 45.746094-45.742187v-358.886719h151c5.523438 0 10-4.476562 10-10s-4.476562-10-10-10h-151.117188c-1.75-27.863281-24.960937-50-53.253906-50-34.535156 0-62.628906 28.09375-62.628906 62.628906v366.246094 9.265625c0 40.726563 33.132812 73.855469 73.859375 73.855469h428.140625c5.523438 0 10-4.476563 10-10v-441.996094c0-5.523438-4.476562-10-10-10zm-439.371094-30c18.398438 0 33.371094 14.972656 33.371094 33.371094v333.90625c-9.148438-7.351563-20.75-11.765625-33.371094-11.765625-16.457031 0-31.441406 6.390625-42.628906 16.804687v-329.6875c0-23.507812 19.121094-42.628906 42.628906-42.628906zm0 0"/><path d="m50 165.5c-2.628906 0-5.210938 1.066406-7.070312 2.929688-1.859376 1.859374-2.929688 4.441406-2.929688 7.070312 0 2.640625 1.070312 5.210938 2.929688 7.066406 1.859374 1.871094 4.441406 2.933594 7.070312 2.933594s5.210938-1.0625 7.070312-2.933594c1.859376-1.855468 2.929688-4.429687 2.929688-7.066406 0-2.628906-1.070312-5.210938-2.929688-7.070312-1.859374-1.863282-4.441406-2.929688-7.070312-2.929688zm0 0"/><path d="m306.558594 50.308594c-2.632813 0-5.210938 1.070312-7.070313 2.929687-1.863281 1.863281-2.929687 4.441407-2.929687 7.070313 0 2.640625 1.066406 5.210937 2.929687 7.070312 1.859375 1.871094 4.4375 2.929688 7.070313 2.929688 2.628906 0 5.207031-1.058594 7.066406-2.929688 1.859375-1.859375 2.933594-4.429687 2.933594-7.070312 0-2.628906-1.070313-5.207032-2.933594-7.070313-1.859375-1.859375-4.4375-2.929687-7.066406-2.929687zm0 0"/><path d="m50 144.875c5.523438 0 10-4.476562 10-10v-74.375c0-5.523438-4.476562-10-10-10s-10 4.476562-10 10v74.375c0 5.523438 4.476562 10 10 10zm0 0"/><path d="m458 128.625c0-5.519531-4.480469-10-10-10h-280c-5.523438 0-10 4.480469-10 10v128c0 5.523438 4.476562 10 10 10h280c5.519531 0 10-4.476562 10-10zm-20 118h-260v-108h260zm0 0"/><path d="m242 318.5c0-5.523438-4.476562-10-10-10h-64c-5.523438 0-10 4.476562-10 10v64c0 5.519531 4.476562 10 10 10h64c5.523438 0 10-4.480469 10-10zm-20 54h-44v-44h44zm0 0"/><path d="m350 318.5c0-5.523438-4.476562-10-10-10h-64c-5.523438 0-10 4.476562-10 10v64c0 5.519531 4.476562 10 10 10h64c5.523438 0 10-4.480469 10-10zm-20 54h-44v-44h44zm0 0"/><path d="m458 318.5c0-5.523438-4.480469-10-10-10h-64c-5.523438 0-10 4.476562-10 10v64c0 5.519531 4.476562 10 10 10h64c5.519531 0 10-4.480469 10-10zm-20 54h-44v-44h44zm0 0"/><path d="m232 428.5h-64c-5.523438 0-10 4.476562-10 10 0 5.519531 4.476562 10 10 10h64c5.523438 0 10-4.480469 10-10 0-5.523438-4.476562-10-10-10zm0 0"/><path d="m340 428.5h-64c-5.523438 0-10 4.476562-10 10 0 5.519531 4.476562 10 10 10h64c5.523438 0 10-4.480469 10-10 0-5.523438-4.476562-10-10-10zm0 0"/><path d="m448 428.5h-64c-5.523438 0-10 4.476562-10 10 0 5.519531 4.476562 10 10 10h64c5.519531 0 10-4.480469 10-10 0-5.523438-4.480469-10-10-10zm0 0"/></symbol><symbol id="web-design" viewBox="0 0 512.01 512.01"><title>web-design</title><path d="m447.183 66.584h-6.075c11.58-18.853 7.304-44.164-11.281-57.953-20.025-14.856-48.482-10.074-62.457 10.81l-31.546 47.144h-270.997c-22.275 0-40.397 18.122-40.397 40.397v258.274c0 22.275 18.122 40.397 40.397 40.397h156.914l-11.856 49.797h-25.589c-16.677 0-30.245 13.567-30.245 30.244v6.315h-31.545c-5.523 0-10 4.478-10 10s4.477 10 10 10h266.999c5.523 0 10-4.478 10-10s-4.477-10-10-10h-31.545v-6.315c0-16.677-13.568-30.244-30.245-30.244h-25.589l-11.856-49.797h156.914c22.275 0 40.397-18.122 40.397-40.397v-56.83-201.445c0-22.275-18.122-40.397-40.398-40.397zm-143.282 175.799c-15.635 10.945-44.926-3.932-72.898 10.994-6.825-35.455-2.522-68.8 33.003-76.16 4.591-.957 9.534-1.39 13.742-1.306 12.024 8.921 24.186 17.944 36.176 26.841 5.249 15.268 3.279 30.32-10.023 39.631zm10.078-107.188 28.307 21.002-21.769 26.541c-8.962-6.649-16.666-12.365-25.628-19.015 1.861-2.781 17.389-25.987 19.09-28.528zm70.014-104.631c7.574-11.321 23.021-13.955 33.917-5.87 10.9 8.086 12.852 23.632 4.215 34.163-15.325 18.683-51.759 63.104-67.142 81.859l-29.87-22.162zm-46.034 455.13v6.315h-163.908v-6.315c0-5.648 4.596-10.244 10.245-10.244h143.418c5.649 0 10.245 4.596 10.245 10.244zm-56.393-30.244h-51.122l11.856-49.797h27.41zm186.015-90.194c0 11.247-9.15 20.397-20.397 20.397-15.874 0-364.508 0-382.356 0-11.247 0-20.397-9.15-20.397-20.397v-46.83h28.576c5.523 0 10-4.478 10-10s-4.477-10-10-10h-28.578v-191.445c0-11.247 9.15-20.397 20.397-20.397h257.615c-9.58 14.317-37.529 56.085-46.382 69.314-19.597.177-39.162 7.004-51.97 21.956-17.429 20.345-20.491 52.313-9.101 95.015 1.947 7.302 11.058 9.918 16.571 4.652 25.857-24.707 58.061 2.243 86.9-21.099 17.604-14.25 21.77-36.904 15.132-58.088 8.973-10.94 82.664-100.784 91.658-111.75h21.933c11.247 0 20.397 9.15 20.397 20.397v191.444h-314.574c-5.523 0-10 4.478-10 10s4.477 10 10 10h314.576z"/><path d="m111.075 298.619c-4.814.984-8.04 5.145-8.04 9.811 0 6.255 5.719 11.045 11.95 9.8 5.537-1.124 8.91-6.46 7.85-11.76-1.113-5.47-6.419-8.926-11.76-7.851z"/></symbol><symbol id="web-programming" viewBox="0 0 24 24"><title>web-programming</title><path d="m6.75 18c-.192 0-.384-.073-.53-.22-.293-.293-.293-.768 0-1.061l2.719-2.719-2.72-2.72c-.293-.293-.293-.768 0-1.061s.768-.293 1.061 0l3.25 3.25c.293.293.293.768 0 1.061l-3.25 3.25c-.146.147-.338.22-.53.22z"/><path d="m17.25 18h-4.5c-.414 0-.75-.336-.75-.75s.336-.75.75-.75h4.5c.414 0 .75.336.75.75s-.336.75-.75.75z"/><path d="m21.25 23h-18.5c-1.517 0-2.75-1.233-2.75-2.75v-16.5c0-1.517 1.233-2.75 2.75-2.75h18.5c1.517 0 2.75 1.233 2.75 2.75v16.5c0 1.517-1.233 2.75-2.75 2.75zm-18.5-20.5c-.689 0-1.25.561-1.25 1.25v16.5c0 .689.561 1.25 1.25 1.25h18.5c.689 0 1.25-.561 1.25-1.25v-16.5c0-.689-.561-1.25-1.25-1.25z"/><path d="m23.25 6h-22.5c-.414 0-.75-.336-.75-.75s.336-.75.75-.75h22.5c.414 0 .75.336.75.75s-.336.75-.75.75z"/></symbol><symbol id="planning" viewBox="0 0 512 512"><title>planning</title><g> <g> <path d="M482,332.596V45c0-24.813-20.187-45-45-45H106C81.187,0,61,20.187,61,45v16H45C20.187,61,0,81.187,0,106s20.187,45,45,45 h16v60H45c-24.813,0-45,20.187-45,45s20.187,45,45,45h16v60H45c-24.813,0-45,20.187-45,45s20.187,45,45,45h16v15 c0,11.955,4.597,23.347,12.944,32.079C82.526,507.056,93.911,512,106,512h301c57.897,0,105-47.551,105-106 C512,377.457,500.546,351.542,482,332.596z M45,121c-8.271,0-15-6.729-15-15s6.729-15,15-15h31c8.271,0,15,6.729,15,15 s-6.729,15-15,15H45z M45,271c-8.271,0-15-6.729-15-15s6.729-15,15-15h31c8.271,0,15,6.729,15,15s-6.729,15-15,15H45z M76,421H45 c-8.271,0-15-6.729-15-15s6.729-15,15-15h31c8.271,0,15,6.729,15,15S84.271,421,76,421z M106,482c-7.99,0-15-7.477-15-16v-17.58 c17.459-6.192,30-22.865,30-42.42c0-19.555-12.541-36.228-30-42.42v-65.16c17.459-6.192,30-22.865,30-42.42 c0-19.555-12.541-36.228-30-42.42v-65.16c17.459-6.192,30-22.865,30-42.42s-12.541-36.228-30-42.42V45c0-8.271,6.729-15,15-15h331 c8.271,0,15,6.729,15,15v266.145c-13.646-6.5-28.905-10.145-45-10.145c-57.897,0-105,47.103-105,105 c0,29.78,12.233,56.726,31.886,76H106z M407,482c-41.355,0-75-34.093-75-76c0-41.355,33.645-75,75-75c41.355,0,75,33.645,75,75 C482,447.907,448.355,482,407,482z"/> </g> </g><g> <g> <path d="M407,121h-90c-8.284,0-15,6.716-15,15s6.716,15,15,15h90c8.284,0,15-6.716,15-15S415.284,121,407,121z"/> </g> </g><g> <g> <path d="M407,241h-90c-8.284,0-15,6.716-15,15s6.716,15,15,15h90c8.284,0,15-6.716,15-15S415.284,241,407,241z"/> </g> </g><g> <g> <path d="M437,391h-15v-15c0-8.284-6.716-15-15-15s-15,6.716-15,15v30c0,8.284,6.716,15,15,15h30c8.284,0,15-6.716,15-15 S445.284,391,437,391z"/> </g> </g><g> <g> <path d="M266.606,95.393c-5.857-5.858-15.355-5.858-21.212,0.001L196,144.787l-23.611-23.611c-5.857-5.858-15.355-5.858-21.213,0 c-5.858,5.858-5.858,15.355,0,21.213l34.218,34.218C188.322,179.536,192.161,181,196,181s7.678-1.464,10.606-4.394l60-60 C272.464,110.748,272.464,101.251,266.606,95.393z"/> </g> </g><g> <g> <path d="M266.606,215.393c-5.857-5.858-15.355-5.858-21.212,0.001L196,264.787l-23.611-23.611c-5.857-5.858-15.355-5.858-21.213,0 c-5.858,5.858-5.858,15.355,0,21.213l34.218,34.218C188.322,299.536,192.161,301,196,301s7.678-1.464,10.606-4.394l60-60 C272.464,230.748,272.464,221.251,266.606,215.393z"/> </g> </g><g> <g> <path d="M266.606,335.393c-5.857-5.858-15.355-5.858-21.212,0.001L196,384.787l-23.611-23.611c-5.857-5.858-15.355-5.858-21.213,0 c-5.858,5.858-5.858,15.355,0,21.213l34.218,34.218C188.322,419.536,192.161,421,196,421s7.678-1.464,10.606-4.394l60-60 C272.464,350.748,272.464,341.251,266.606,335.393z"/> </g> </g></symbol><symbol id="api" viewBox="0 0 501.796 501.796"><title>api</title><path d="m343.973 400.1v-9.23-173.46c0-17.52-14.2-31.73-31.73-31.73h-277.11c-17.52 0-31.73 14.21-31.73 31.73v173.46 9.23z" fill="#edf5fa"/><path d="m312.243 185.68h-23.511c17.53 0 31.73 14.21 31.73 31.73v173.46 9.23h23.511v-9.23-173.46c0-17.52-14.2-31.73-31.73-31.73z" fill="#d0e7f2"/><path d="m230.043 412.378 4.26 70.852h-122.66l4.26-70.852h28.34v18.752c0 16.26 13.18 29.45 29.45 29.45 16.26 0 29.45-13.19 29.45-29.45v-18.752z" fill="#07b2cd"/><g fill="#0199b1"><path d="m153.694 460.58c3.51 0 6.875-.617 9.997-1.745-11.343-4.095-19.449-14.955-19.449-27.705v-18.752h-19.999v18.752c.001 16.26 13.181 29.45 29.451 29.45z"/><path d="m230.043 412.378h-19.999l4.26 70.852h19.999z"/></g><path d="m3.403 390.875v9.945c0 12.539 10.165 22.704 22.704 22.704h295.164c12.539 0 22.704-10.165 22.704-22.704v-9.945z" fill="#30dde5"/><path d="m320.463 390.875v9.945c0 12.539-10.165 22.704-22.704 22.704h23.512c12.539 0 22.704-10.165 22.704-22.704v-9.945z" fill="#02c7dd"/><g><path d="m171.64 286.206h-36.375c-4.142 0-7.5-3.357-7.5-7.5s3.358-7.5 7.5-7.5h36.375c4.142 0 7.5 3.357 7.5 7.5s-3.358 7.5-7.5 7.5z" fill="#bd80e1"/></g><g><path d="m171.64 315.656h-36.375c-4.142 0-7.5-3.357-7.5-7.5s3.358-7.5 7.5-7.5h36.375c4.142 0 7.5 3.357 7.5 7.5s-3.358 7.5-7.5 7.5z" fill="#bd80e1"/></g><g><path d="m401.677 301.36h-193.399c-4.142 0-7.5-3.357-7.5-7.5s3.358-7.5 7.5-7.5h193.399c9.028 0 16.374-7.346 16.374-16.374v-118.551c0-4.143 3.357-7.5 7.5-7.5s7.5 3.357 7.5 7.5v118.551c0 17.3-14.074 31.374-31.374 31.374z" fill="#017297"/></g><g><circle cx="51.806" cy="265.267" fill="#d0e7f2" r="7.518"/><g><path d="m102.546 272.767h-15.74c-4.142 0-7.5-3.357-7.5-7.5s3.358-7.5 7.5-7.5h15.74c4.142 0 7.5 3.357 7.5 7.5s-3.358 7.5-7.5 7.5z" fill="#d0e7f2"/></g></g><g><circle cx="103.028" cy="293.512" fill="#d0e7f2" r="7.518"/><g><path d="m68.028 301.012h-18.74c-4.142 0-7.5-3.357-7.5-7.5s3.358-7.5 7.5-7.5h18.74c4.142 0 7.5 3.357 7.5 7.5s-3.358 7.5-7.5 7.5z" fill="#d0e7f2"/></g></g><path d="m183.589 326.332h-9.221c-6.229 0-11.278-5.049-11.278-11.278v-44.009c0-6.229 5.049-11.278 11.278-11.278h9.221c18.382 0 33.283 14.901 33.283 33.283 0 18.381-14.902 33.282-33.283 33.282z" fill="#6cf5c2"/><path d="m183.589 259.767h-9.221c-1.671 0-3.253.373-4.679 1.026 14.405 3.661 25.061 16.714 25.061 32.257 0 15.544-10.656 28.596-25.061 32.257 1.427.653 3.008 1.026 4.679 1.026h9.221c18.382 0 33.283-14.901 33.283-33.283 0-18.382-14.902-33.283-33.283-33.283z" fill="#00f2a6"/><g><path d="m102.114 329.257h-52.826c-4.142 0-7.5-3.357-7.5-7.5s3.358-7.5 7.5-7.5h52.826c4.142 0 7.5 3.357 7.5 7.5s-3.357 7.5-7.5 7.5z" fill="#d0e7f2"/></g><g><path d="m68.104 501.794c-1.241 0-2.498-.308-3.658-.957-3.614-2.023-4.903-6.595-2.879-10.208 5.146-9.188 14.883-14.896 25.414-14.896h173.416c10.53 0 20.268 5.708 25.414 14.896 2.023 3.614.734 8.185-2.879 10.209-3.614 2.026-8.185.734-10.209-2.879-2.496-4.457-7.219-7.226-12.326-7.226h-173.416c-5.107 0-9.831 2.769-12.326 7.225-1.375 2.455-3.924 3.836-6.551 3.836z" fill="#30dde5"/></g><g><path d="m498.392 49.12v88.58c0 13.123-10.634 23.768-23.758 23.768h-136.446c-13.123 0-23.768-10.644-23.768-23.768v-88.58c0-13.123 10.644-23.768 23.768-23.768h136.446c13.123 0 23.758 10.645 23.758 23.768z" fill="#bd80e1"/><path d="m474.634 25.352h-21.134c13.123 0 23.758 10.644 23.758 23.768v88.58c0 13.124-10.634 23.768-23.758 23.768h21.134c13.123 0 23.758-10.644 23.758-23.768v-88.58c0-13.123-10.635-23.768-23.758-23.768z" fill="#af66da"/></g><path d="m498.393 23.77v25.35h-183.97v-25.35c0-13.12 10.64-23.77 23.77-23.77h136.44c13.12 0 23.76 10.65 23.76 23.77z" fill="#30dde5"/><circle cx="281.25" cy="293.86" fill="#02c7dd" r="15.036"/><path d="m498.393 23.77v25.35h-21.14v-25.35c0-13.12-10.63-23.77-23.75-23.77h21.13c13.12 0 23.76 10.65 23.76 23.77z" fill="#02c7dd"/><circle cx="469.695" cy="24.558" fill="#bd80e1" r="7.518"/><g fill="#edf5fa"><path d="m460.614 73.999c-3.278 0-5.935 2.657-5.935 5.935v35.803c0 3.278 2.657 5.935 5.935 5.935s5.935-2.657 5.935-5.935v-35.803c0-3.278-2.657-5.935-5.935-5.935z"/><path d="m382.67 74.841c-2.743 0-5.045 1.863-5.725 4.392-2.914-1.492-6.211-2.34-9.703-2.34-11.781 0-21.365 9.584-21.365 21.365 0 11.78 9.584 21.364 21.365 21.364 3.493 0 6.789-.848 9.703-2.34.68 2.529 2.982 4.392 5.726 4.392 3.278 0 5.935-2.657 5.935-5.935v-34.963c-.001-3.278-2.658-5.935-5.936-5.935zm-15.429 32.909c-5.235 0-9.494-4.259-9.494-9.494s4.259-9.494 9.494-9.494c5.234 0 9.494 4.259 9.494 9.494-.001 5.235-4.26 9.494-9.494 9.494z"/><path d="m422.142 75.619c-3.789 0-7.348.996-10.437 2.733-1.056-1.642-2.895-2.733-4.992-2.733-3.278 0-5.935 2.657-5.935 5.935v50.211c0 3.278 2.657 5.935 5.935 5.935s5.935-2.657 5.935-5.935v-15.649c2.862 1.426 6.085 2.233 9.494 2.233 11.78 0 21.364-9.584 21.364-21.365.001-11.781-9.583-21.365-21.364-21.365zm0 30.859c-5.235 0-9.494-4.259-9.494-9.494 0-5.234 4.259-9.494 9.494-9.494 5.234 0 9.494 4.259 9.494 9.494 0 5.234-4.259 9.494-9.494 9.494z"/></g></symbol><symbol id="ux-design" viewBox="0 0 497 497"><title>ux-design</title><path d="m362.667 33.37v430.26c0 18.43-14.94 33.37-33.37 33.37h-233.8c-18.43 0-33.37-14.94-33.37-33.37v-430.26c0-18.43 14.94-33.37 33.37-33.37h35.4l83.939 10.337 79.061-10.337h35.4c18.43 0 33.37 14.94 33.37 33.37z" fill="#bd80e1"/><g><path d="m206.011 377.177h-52.162c-4.143 0-7.5-3.357-7.5-7.5s3.357-7.5 7.5-7.5h44.662v-36.317c0-12.764 10.385-23.148 23.149-23.148h87.486c4.143 0 7.5 3.357 7.5 7.5s-3.357 7.5-7.5 7.5h-87.486c-4.493 0-8.149 3.655-8.149 8.148v43.816c0 4.143-3.358 7.501-7.5 7.501z" fill="#017297"/></g><g><path d="m309.146 377.177h-171.539c-4.143 0-7.5-3.357-7.5-7.5s3.357-7.5 7.5-7.5h171.539c4.143 0 7.5 3.357 7.5 7.5s-3.357 7.5-7.5 7.5z" fill="#017297"/></g><g><path d="m212.397 439.314h-71.607c-12.765 0-23.149-10.385-23.149-23.149v-41.205c0-4.143 3.357-7.5 7.5-7.5s7.5 3.357 7.5 7.5v41.205c0 4.493 3.656 8.149 8.149 8.149h71.607c4.143 0 7.5 3.357 7.5 7.5s-3.357 7.5-7.5 7.5z" fill="#017297"/></g><path d="m329.297 0h-24.849c18.43 0 33.37 14.94 33.37 33.37v430.26c0 18.43-14.94 33.37-33.37 33.37h24.849c18.43 0 33.37-14.94 33.37-33.37v-430.26c0-18.43-14.94-33.37-33.37-33.37z" fill="#af66da"/><path d="m293.897 0-4.55 23.76c-2.5 13.05-13.91 22.48-27.19 22.48h-99.52c-13.28 0-24.69-9.43-27.19-22.48l-4.55-23.76z" fill="#017297"/><path d="m268.812 0-4.55 23.76c-2.5 13.05-13.91 22.48-27.19 22.48h25.085c13.28 0 24.69-9.43 27.19-22.48l4.55-23.76z" fill="#025f80"/><path d="m417.568 324.844h-109.614c-9.557 0-17.305-7.748-17.305-17.305 0-9.557 7.748-17.305 17.305-17.305h109.614c9.557 0 17.305 7.748 17.305 17.305 0 9.557-7.748 17.305-17.305 17.305z" fill="#d0e7f2"/><path d="m417.568 290.234h-22.021c9.557 0 17.305 7.748 17.305 17.305 0 9.557-7.748 17.305-17.305 17.305h22.021c9.557 0 17.305-7.748 17.305-17.305 0-9.557-7.748-17.305-17.305-17.305z" fill="#b7d9eb"/><path d="m417.568 384.982h-109.614c-9.557 0-17.305-7.748-17.305-17.305 0-9.557 7.748-17.305 17.305-17.305h109.614c9.557 0 17.305 7.748 17.305 17.305 0 9.557-7.748 17.305-17.305 17.305z" fill="#d0e7f2"/><path d="m417.568 350.372h-22.021c9.557 0 17.305 7.748 17.305 17.305s-7.748 17.305-17.305 17.305h22.021c9.557 0 17.305-7.748 17.305-17.305s-7.748-17.305-17.305-17.305z" fill="#b7d9eb"/><path d="m285.075 449.12h-63.459c-9.557 0-17.305-7.748-17.305-17.305 0-9.557 7.748-17.305 17.305-17.305h63.459c9.557 0 17.305 7.748 17.305 17.305 0 9.557-7.748 17.305-17.305 17.305z" fill="#00f2a6"/><path d="m285.075 414.51h-22.021c9.557 0 17.305 7.748 17.305 17.305s-7.748 17.305-17.305 17.305h22.021c9.557 0 17.305-7.748 17.305-17.305 0-9.558-7.748-17.305-17.305-17.305z" fill="#05e39c"/><path d="m136.543 386.982h-22.806c-9.557 0-17.305-7.748-17.305-17.305 0-9.557 7.748-17.305 17.305-17.305h22.806c9.557 0 17.305 7.748 17.305 17.305 0 9.557-7.748 17.305-17.305 17.305z" fill="#30dde5"/><path d="m136.543 352.372h-22.021c9.557 0 17.305 7.748 17.305 17.305s-7.748 17.305-17.305 17.305h22.021c9.557 0 17.305-7.748 17.305-17.305s-7.748-17.305-17.305-17.305z" fill="#02c7dd"/><g><g><path d="m227.346 31.8h-29.896c-4.143 0-7.5-3.357-7.5-7.5s3.357-7.5 7.5-7.5h29.896c4.143 0 7.5 3.357 7.5 7.5s-3.358 7.5-7.5 7.5z" fill="#025f80"/></g></g><g><circle cx="322.806" cy="31.684" fill="#d0e7f2" r="7.384"/></g><g><g><g><path d="m142.906 234.368c-.027 0-.053 0-.08 0-9.574-.013-18.371-2.538-26.147-7.506-14.998-9.582-22.289-21.823-22.289-37.423v-82.578c0-4.143 3.357-7.5 7.5-7.5s7.5 3.357 7.5 7.5v82.578c0 10.49 4.595 17.901 15.365 24.782 5.331 3.406 11.418 5.138 18.092 5.146h.058c5.951 0 11.462-1.256 16.384-3.734 12.441-6.266 18.489-14.862 18.489-26.281v-82.491c0-4.143 3.357-7.5 7.5-7.5s7.5 3.357 7.5 7.5v82.491c0 17.146-9.247 30.867-26.743 39.678-7.034 3.542-14.815 5.338-23.129 5.338z" fill="#edf5fa"/></g></g><g><g><path d="m225.696 232.873c-1.572 0-3.157-.492-4.51-1.512-3.307-2.494-3.967-7.196-1.473-10.504l90.161-119.573c2.492-3.308 7.195-3.967 10.504-1.473 3.307 2.493 3.967 7.196 1.473 10.504l-90.161 119.574c-1.473 1.955-3.72 2.984-5.994 2.984z" fill="#edf5fa"/></g><g><path d="m322.607 234.996c-2.266 0-4.505-1.022-5.98-2.966l-92.357-121.696c-2.504-3.3-1.859-8.005 1.44-10.509s8.004-1.859 10.509 1.44l92.357 121.696c2.504 3.3 1.859 8.005-1.44 10.509-1.356 1.029-2.948 1.526-4.529 1.526z" fill="#edf5fa"/></g></g></g></symbol><symbol id="coding" viewBox="0 0 496 496"><title>coding</title><g><path d="m426.925 157.822v215.483c0 21.851-17.718 39.581-39.581 39.581h-347.763c-21.863-.001-39.581-17.73-39.581-39.582v-215.482c0-20.943 16.977-37.908 37.908-37.908h351.109c20.931 0 37.908 16.964 37.908 37.908z" fill="#d0e7f2"/><path d="m244.851 119.914h48.095v292.972h-48.095z" fill="#b7d9eb"/></g><path d="m251.445 309.24h-53.453c-10.466 0-18.951-8.485-18.951-18.951v-68.537c0-10.466 8.485-18.951 18.951-18.951h53.453c10.466 0 18.951 8.485 18.951 18.951v68.537c0 10.467-8.485 18.951-18.951 18.951z" fill="#02c7dd"/><path d="m251.445 202.801h-25.198c10.466 0 18.951 8.485 18.951 18.951v68.537c0 10.466-8.485 18.951-18.951 18.951h25.198c10.466 0 18.951-8.485 18.951-18.951v-68.537c0-10.466-8.485-18.951-18.951-18.951z" fill="#07b2cd"/><path d="m426.925 141.023v17.407h-426.925v-17.407c0-20.943 16.977-37.908 37.908-37.908h351.109c20.931 0 37.908 16.965 37.908 37.908z" fill="#07b2cd"/><path d="m244.851 103.115h48.095v55.315h-48.095z" fill="#0199b1"/><g><path d="m496 72.233v367.269c0 21.851-17.718 39.581-39.581 39.581h-147.442c-21.863 0-39.581-17.729-39.581-39.581v-367.269c0-20.943 16.977-37.908 37.908-37.908h150.788c20.931-.001 37.908 16.964 37.908 37.908z" fill="#bd80e1"/><path d="m458.092 34.324h-23.854c20.932 0 37.908 16.965 37.908 37.908v367.269c0 21.851-17.718 39.581-39.581 39.581h23.854c21.863 0 39.581-17.729 39.581-39.581v-367.268c0-20.944-16.977-37.909-37.908-37.909z" fill="#af66da"/></g><path d="m496 54.826v17.407h-226.604v-17.407c0-20.943 16.977-37.908 37.908-37.908h150.788c20.931 0 37.908 16.964 37.908 37.908z" fill="#30dde5"/><path d="m458.092 16.918h-23.854c20.932 0 37.908 16.965 37.908 37.908v17.407h23.854v-17.407c0-20.944-16.977-37.908-37.908-37.908z" fill="#02c7dd"/><path d="m122.803 309.24h-53.453c-10.466 0-18.951-8.485-18.951-18.951v-68.537c0-10.466 8.485-18.951 18.951-18.951h53.453c10.466 0 18.951 8.485 18.951 18.951v68.537c0 10.467-8.485 18.951-18.951 18.951z" fill="#02c7dd"/><path d="m122.803 202.801h-25.198c10.466 0 18.951 8.485 18.951 18.951v68.537c0 10.466-8.484 18.951-18.951 18.951h25.198c10.466 0 18.951-8.485 18.951-18.951v-68.537c0-10.466-8.485-18.951-18.951-18.951z" fill="#07b2cd"/><g><g><path d="m121.754 354.887h-51.355c-4.143 0-7.5-3.358-7.5-7.5s3.357-7.5 7.5-7.5h51.354c4.143 0 7.5 3.358 7.5 7.5s-3.357 7.5-7.499 7.5z" fill="#edf5fa"/></g><g><path d="m107.107 384.872h-19.99c-4.143 0-7.5-3.358-7.5-7.5s3.357-7.5 7.5-7.5h19.99c4.143 0 7.5 3.358 7.5 7.5s-3.357 7.5-7.5 7.5z" fill="#edf5fa"/></g></g><g><g><path d="m257.9 347.388c0 4.14-3.36 7.5-7.5 7.5h-51.36c-4.14 0-7.5-3.36-7.5-7.5s3.36-7.5 7.5-7.5h51.36c4.14 0 7.5 3.36 7.5 7.5z" fill="#edf5fa"/></g><path d="m257.9 347.388c0 4.14-3.36 7.5-7.5 7.5h-5.55v-15h5.55c4.14 0 7.5 3.36 7.5 7.5z" fill="#d0e7f2"/><g><path d="m235.749 384.872h-19.989c-4.143 0-7.5-3.358-7.5-7.5s3.357-7.5 7.5-7.5h19.989c4.143 0 7.5 3.358 7.5 7.5s-3.357 7.5-7.5 7.5z" fill="#edf5fa"/></g></g><g><path d="m440.315 302.74h-112.779c-4.143 0-7.5-3.358-7.5-7.5s3.357-7.5 7.5-7.5h112.779c4.143 0 7.5 3.358 7.5 7.5s-3.357 7.5-7.5 7.5z" fill="#edf5fa"/></g><g><path d="m404.481 333.725h-76.945c-4.143 0-7.5-3.358-7.5-7.5s3.357-7.5 7.5-7.5h76.945c4.143 0 7.5 3.358 7.5 7.5s-3.357 7.5-7.5 7.5z" fill="#edf5fa"/></g><g><g><path d="m420.75 225.149c-1.919 0-3.839-.732-5.304-2.197-2.929-2.929-2.929-7.678 0-10.606l41.829-41.829-41.829-41.829c-2.929-2.929-2.929-7.678 0-10.606 2.93-2.929 7.678-2.929 10.607 0l47.132 47.132c2.929 2.929 2.929 7.678 0 10.606l-47.132 47.132c-1.464 1.464-3.384 2.197-5.303 2.197z" fill="#00f2a6"/></g><g><path d="m348.915 225.149c-1.92 0-3.839-.732-5.304-2.197l-47.131-47.132c-2.929-2.929-2.929-7.678 0-10.606l47.131-47.132c2.93-2.929 7.678-2.929 10.607 0s2.929 7.678 0 10.606l-41.828 41.829 41.828 41.829c2.929 2.929 2.929 7.678 0 10.606-1.464 1.464-3.384 2.197-5.303 2.197z" fill="#00f2a6"/></g><g><path d="m371.003 209.947c-1.046 0-2.108-.22-3.122-.685-3.765-1.727-5.417-6.179-3.69-9.944l29.904-65.199c1.727-3.764 6.176-5.418 9.944-3.69 3.765 1.727 5.417 6.179 3.69 9.944l-29.904 65.199c-1.262 2.752-3.98 4.375-6.822 4.375z" fill="#edf5fa"/></g></g><g><path d="m252.35 131.368c0 4.15-3.36 7.5-7.5 7.5h-35.72c-4.14 0-7.5-3.35-7.5-7.5 0-4.14 3.36-7.5 7.5-7.5h35.72c4.14 0 7.5 3.36 7.5 7.5z" fill="#30dde5"/></g><path d="m252.35 131.368c0 4.15-3.36 7.5-7.5 7.5v-15c4.14 0 7.5 3.36 7.5 7.5z" fill="#02c7dd"/><g><path d="m355.514 52.673h-35.719c-4.143 0-7.5-3.358-7.5-7.5s3.357-7.5 7.5-7.5h35.719c4.143 0 7.5 3.358 7.5 7.5s-3.358 7.5-7.5 7.5z" fill="#02c7dd"/></g><circle cx="455.434" cy="45.173" fill="#bd80e1" r="7.379"/><circle cx="440.316" cy="326.225" fill="#edf5fa" r="7.379"/><g><g><path d="m440.315 387.4h-112.779c-4.143 0-7.5-3.358-7.5-7.5s3.357-7.5 7.5-7.5h112.779c4.143 0 7.5 3.358 7.5 7.5s-3.357 7.5-7.5 7.5z" fill="#edf5fa"/></g><g><path d="m351.082 416.385h-23.546c-4.143 0-7.5-3.358-7.5-7.5s3.357-7.5 7.5-7.5h23.546c4.143 0 7.5 3.358 7.5 7.5s-3.357 7.5-7.5 7.5z" fill="#edf5fa"/></g><g><path d="m440.315 416.385h-19.168c-4.143 0-7.5-3.358-7.5-7.5s3.357-7.5 7.5-7.5h19.168c4.143 0 7.5 3.358 7.5 7.5s-3.357 7.5-7.5 7.5z" fill="#edf5fa"/></g><g><path d="m409.313 446.37h-81.776c-4.143 0-7.5-3.358-7.5-7.5s3.357-7.5 7.5-7.5h81.776c4.143 0 7.5 3.358 7.5 7.5s-3.358 7.5-7.5 7.5z" fill="#edf5fa"/></g><circle cx="386.472" cy="408.885" fill="#edf5fa" r="7.379"/></g></symbol><symbol id="phone-call" viewBox="0 0 512.004 512.004"><title>phone-call</title><g transform="translate(1)"> <g> <g> <path d="M510.795,421.404c-0.922-8.437-5.14-15.974-11.878-21.196l-98.669-76.264c-16.772-12.943-39.402-14.479-57.71-3.891 l-18.145,10.485c-11.059,6.369-24.739,5.529-34.856-2.294c-14.663-11.284-36.555-29.142-57.506-50.113 c-20.786-20.807-38.317-42.289-49.355-56.645c-7.741-10.055-8.601-23.715-2.212-34.794l10.485-18.186 c10.588-18.349,9.072-41.02-3.871-57.731l-76.285-98.669C105.593,5.369,98.098,1.151,89.64,0.209 c-8.458-0.983-16.711,1.536-23.244,6.942c-16.752,13.823-38.276,31.886-45.75,39.381C5.491,61.687-0.98,81.532-0.98,112.947 c0,36.637,67.254,172.906,148.249,250.522c77.882,81.302,214.151,148.536,250.829,148.536c31.395,0,51.239-6.471,66.353-21.626 c8.089-8.069,28.159-32.152,39.381-45.75C509.259,438.074,511.716,429.841,510.795,421.404z M488.063,431.582 c-18.738,22.711-32.603,38.869-38.071,44.337c-8.089,8.11-19.988,15.605-51.915,15.605c-28.118,0-160.209-63.055-236.35-142.535 C82.575,273.114,19.499,141.064,19.499,112.947c0-31.927,7.495-43.825,15.626-51.935c5.406-5.407,21.135-18.923,44.317-38.071 c1.925-1.597,4.28-2.437,6.738-2.437c0.389,0,0.799,0.021,1.188,0.061c2.888,0.328,5.448,1.761,7.229,4.075l76.285,98.648 c7.823,10.137,8.745,23.858,2.335,34.978l-10.485,18.185c-10.547,18.267-9.093,40.856,3.707,57.506 c11.407,14.847,29.531,37.067,51.116,58.652c21.728,21.728,44.358,40.221,59.492,51.853c16.629,12.861,39.259,14.417,57.587,3.83 c0-0.021,0-0.021,0-0.021l18.145-10.485c11.1-6.41,24.841-5.448,34.958,2.376l98.648,76.244c2.294,1.782,3.727,4.362,4.055,7.25 C490.766,426.544,489.926,429.35,488.063,431.582z"/> <path d="M354.313,40.348c54.188,19.783,96.58,62.175,116.342,116.363c1.515,4.157,5.447,6.738,9.625,6.738 c1.167,0,2.335-0.205,3.482-0.635c5.325-1.945,8.069-7.803,6.123-13.127c-21.81-59.861-68.667-106.737-128.568-128.568 c-5.243-1.925-11.182,0.819-13.127,6.103C346.244,32.525,348.989,38.402,354.313,40.348z"/> <path d="M326.277,117.37c31.005,11.202,56.174,36.391,67.356,67.376c1.536,4.178,5.447,6.758,9.646,6.758 c1.167,0,2.335-0.184,3.481-0.594c5.325-1.925,8.089-7.782,6.164-13.107c-13.25-36.637-43.027-66.434-79.685-79.684 c-5.284-1.946-11.182,0.819-13.127,6.144C318.188,109.588,320.953,115.445,326.277,117.37z"/> <path d="M298.282,194.372c8.581,3.072,15.298,9.789,18.37,18.39c1.516,4.198,5.448,6.799,9.646,6.799 c1.126,0,2.294-0.184,3.44-0.614c5.345-1.905,8.11-7.762,6.205-13.086c-5.14-14.397-16.363-25.619-30.78-30.76 c-5.304-1.925-11.161,0.881-13.086,6.185C290.172,186.61,292.937,192.467,298.282,194.372z"/> </g> </g> </g></symbol><symbol id="location" viewBox="0 0 8.4666664 8.4666672"><title>location</title><g id="layer1" transform="translate(0 761.333)"><path id="path1943" d="m4.2343664-760.80393c-1.458119 0-2.646349 1.18875-2.646349 2.64687 0 1.03943.627012 2.1792 1.234033 3.08973.60702.91053 1.214913 1.58388 1.214913 1.58388a.2646098.2646098 0 0 0 .39274 0s.607893-.67335 1.214914-1.58388c.60702-.91053 1.234032-2.0503 1.234032-3.08973 0-1.45812-1.186161-2.64687-2.644283-2.64687zm0 .52917c1.172136 0 2.115117.94556 2.115117 2.1177 0 .81265-.561028 1.92132-1.144633 2.79673-.485383.72807-.820867 1.09593-.970484 1.26762-.149291-.17129-.485314-.5391-.970999-1.26762-.583605-.87541-1.146183-1.98408-1.146183-2.79673 0-1.17214.945046-2.1177 2.117182-2.1177zm0 1.05885c-.581366 0-1.058849.47748-1.058849 1.05885 0 .58136.477483 1.05833 1.058849 1.05833.581369 0 1.058334-.47697 1.058334-1.05833 0-.58137-.476965-1.05885-1.058334-1.05885zm0 .52916c.295386 0 .529167.2343.529167.52969 0 .29538-.233781.52917-.529167.52916-.295383.00001-.529166-.23378-.529166-.52916 0-.29539.233783-.52969.529166-.52969z" font-variant-ligatures="normal" font-variant-position="normal" font-variant-caps="normal" font-variant-numeric="normal" font-variant-alternates="normal" font-variant-east-asian="normal" font-feature-settings="normal" font-variation-settings="normal" text-indent="0" text-align="start" text-decoration-line="none" text-decoration-style="solid" text-decoration-color="rgb(0,0,0)" text-transform="none" text-orientation="mixed" white-space="normal" shape-padding="0" shape-margin="0" inline-size="0" isolation="auto" mix-blend-mode="normal" solid-color="rgb(0,0,0)" solid-opacity="1" vector-effect="none" paint-order="fill markers stroke"/></g></symbol><symbol id="android" viewBox="0 0 64 64"><title>android</title><path d="m48 64h-32a16.0007 16.0007 0 0 1 -16-16v-32a16.0007 16.0007 0 0 1 16-16h32a16 16 0 0 1 16 16v32a16 16 0 0 1 -16 16" fill="#32dc82"/><path d="m30 18h18a9.0006 9.0006 0 0 0 .92-17.954c-.306-.017-.609-.046-.92-.046h-32a16.0007 16.0007 0 0 0 -16 16v32a30.0007 30.0007 0 0 1 30-30" fill="#4bf59b"/><path d="m48 32a16 16 0 1 0 16 16v-32a16 16 0 0 1 -16 16" fill="#19c369"/><g fill="#fff"><path d="m46 32h-28v14a1.9994 1.9994 0 0 0 2 2h24a1.9994 1.9994 0 0 0 2-2z"/><path d="m16 35a3 3 0 0 0 -6 0v10a3 3 0 0 0 6 0z"/><path d="m54 35a3 3 0 0 0 -6 0v10a3 3 0 0 0 6 0z"/><path d="m18 30h28a14.0194 14.0194 0 0 0 -5.319-10.984l3.185-5.516a1 1 0 0 0 -1.732-1l-3.111 5.389a14.008 14.008 0 0 0 -14.047-.002l-3.11-5.387a1 1 0 0 0 -1.732 1l3.185 5.516a13.9741 13.9741 0 0 0 -5.319 10.984zm20.5-7a1.5 1.5 0 1 1 -1.5 1.5 1.5005 1.5005 0 0 1 1.5-1.5zm-13 0a1.5 1.5 0 1 1 -1.5 1.5 1.5005 1.5005 0 0 1 1.5-1.5z"/></g></symbol><symbol id="apple" viewBox="0 0 512 512"><title>apple</title><path d="M185.255,512c-76.201-0.439-139.233-155.991-139.233-235.21c0-129.404,97.075-157.734,134.487-157.734 c16.86,0,34.863,6.621,50.742,12.48c11.104,4.087,22.588,8.306,28.975,8.306c3.823,0,12.832-3.589,20.786-6.738 c16.963-6.753,38.071-15.146,62.651-15.146c0.044,0,0.103,0,0.146,0c18.354,0,74.004,4.028,107.461,54.272l7.837,11.777 l-11.279,8.511c-16.113,12.158-45.513,34.336-45.513,78.267c0,52.031,33.296,72.041,49.292,81.665 c7.061,4.248,14.37,8.628,14.37,18.208c0,6.255-49.922,140.566-122.417,140.566c-17.739,0-30.278-5.332-41.338-10.034 c-11.191-4.761-20.845-8.862-36.797-8.862c-8.086,0-18.311,3.823-29.136,7.881C221.496,505.73,204.752,512,185.753,512H185.255z"/><path d="M351.343,0c1.888,68.076-46.797,115.304-95.425,112.342C247.905,58.015,304.54,0,351.343,0z"/></symbol><symbol id="dashboard" viewBox="0 0 502.545 502.545"><title>dashboard</title><path d="m433.676 107.592v345.281c0 18.29-14.83 33.13-33.13 33.13h-291.385c-18.3 0-33.13-14.84-33.13-33.13l-.09-7.931-52.922-35.938v-301.412c0-17.53 14.21-31.73 31.73-31.73h347.197c17.52 0 31.73 14.2 31.73 31.73z" fill="#edf5fa"/><path d="m401.946 75.862h-21.028c17.52 0 31.73 14.2 31.73 31.73v345.281c0 18.29-14.83 33.13-33.13 33.13h21.028c18.3 0 33.13-14.84 33.13-33.13v-345.281c0-17.53-14.21-31.73-31.73-31.73z" fill="#d0e7f2"/><path d="m474.024 145.777h-72.193c-15.752 0-28.521-12.769-28.521-28.521v-72.194c0-15.752 12.769-28.521 28.521-28.521h72.193c15.752 0 28.521 12.769 28.521 28.521v72.193c0 15.752-12.769 28.522-28.521 28.522z" fill="#017297"/><path d="m474.024 16.541h-23.2c15.752 0 28.521 12.769 28.521 28.521v72.193c0 15.752-12.769 28.521-28.521 28.521h23.2c15.752 0 28.521-12.769 28.521-28.521v-72.193c0-15.752-12.769-28.521-28.521-28.521z" fill="#025f80"/><path d="m274.906 208.727h-94.483c-6.814 0-12.338-5.524-12.338-12.338v-18.458c0-6.814 5.524-12.338 12.338-12.338h94.483c6.814 0 12.338 5.524 12.338 12.338v18.458c-.001 6.814-5.524 12.338-12.338 12.338z" fill="#00f2a6"/><path d="m274.906 165.593h-22.899c6.814 0 12.338 5.524 12.338 12.338v18.458c0 6.814-5.524 12.338-12.338 12.338h22.899c6.814 0 12.338-5.524 12.338-12.338v-18.458c-.001-6.814-5.524-12.338-12.338-12.338z" fill="#05e39c"/><path d="m385.085 276.855h-47.266c-6.814 0-12.338-5.524-12.338-12.338v-86.586c0-6.814 5.524-12.338 12.338-12.338h47.266c6.814 0 12.338 5.524 12.338 12.338v86.586c0 6.815-5.524 12.338-12.338 12.338z" fill="#af66da"/><path d="m385.085 165.593h-22.899c6.814 0 12.338 5.524 12.338 12.338v86.586c0 6.814-5.524 12.338-12.338 12.338h22.899c6.814 0 12.338-5.524 12.338-12.338v-86.586c0-6.814-5.524-12.338-12.338-12.338z" fill="#9857bd"/><path d="m274.906 276.855h-94.483c-6.814 0-12.338-5.524-12.338-12.338v-18.457c0-6.814 5.524-12.338 12.338-12.338h94.483c6.814 0 12.338 5.524 12.338 12.338v18.458c-.001 6.814-5.524 12.337-12.338 12.337z" fill="#fe5ca7"/><path d="m274.906 233.722h-22.899c6.814 0 12.338 5.524 12.338 12.338v18.458c0 6.814-5.524 12.338-12.338 12.338h22.899c6.814 0 12.338-5.524 12.338-12.338v-18.458c-.001-6.814-5.524-12.338-12.338-12.338z" fill="#fe3d97"/><path d="m31.505 312.885c0-11.679 9.468-21.147 21.147-21.147h72.99v-215.876h-93.912c-17.52 0-31.73 14.2-31.73 31.73v304.22c0 18.297 14.833 33.13 33.13 33.13h92.512v-110.911h-72.99c-11.679 0-21.147-9.467-21.147-21.146z" fill="#30dde5"/><g fill="#02c7dd"><path d="m52.652 291.738h-22.06c-11.679 0-21.146 9.468-21.146 21.147s9.468 21.147 21.146 21.147h22.06c-11.679 0-21.147-9.468-21.147-21.147s9.468-21.147 21.147-21.147z"/><path d="m103.582 75.862h22.06v215.876h-22.06z"/><path d="m103.582 334.031h22.06v110.911h-22.06z"/></g><circle cx="437.927" cy="59.013" fill="#d0e7f2" r="19.402"/><path d="m437.927 39.61c-2.817 0-5.487.614-7.902 1.693 6.773 3.027 11.5 9.811 11.5 17.709s-4.727 14.682-11.5 17.709c2.416 1.08 5.085 1.693 7.902 1.693 10.716 0 19.402-8.687 19.402-19.402s-8.686-19.402-19.402-19.402z" fill="#b7d9eb"/><path d="m405.15 117.337c-3.536 0-6.176-3.201-5.572-6.685 3.17-18.31 19.133-32.236 38.35-32.236 19.216 0 35.18 13.926 38.35 32.236.603 3.484-2.037 6.685-5.572 6.685z" fill="#d0e7f2"/><path d="m476.277 110.651c-3.17-18.31-19.133-32.236-38.35-32.236-3.063 0-6.042.357-8.901 1.026 15.078 3.528 26.784 15.818 29.448 31.21.603 3.484-2.037 6.685-5.572 6.685h17.802c3.536.001 6.176-3.2 5.573-6.685z" fill="#b7d9eb"/><g><path d="m272.668 415.119c-4.142 0-7.5-3.358-7.5-7.5v-37.884c0-4.142 3.358-7.5 7.5-7.5s7.5 3.358 7.5 7.5v37.884c0 4.142-3.357 7.5-7.5 7.5z" fill="#025f80"/></g><g><path d="m243.684 415.119c-4.142 0-7.5-3.358-7.5-7.5v-61.789c0-4.142 3.358-7.5 7.5-7.5s7.5 3.358 7.5 7.5v61.789c0 4.142-3.358 7.5-7.5 7.5z" fill="#017297"/></g><g><path d="m214.698 415.119c-4.142 0-7.5-3.358-7.5-7.5v-24.718c0-4.142 3.358-7.5 7.5-7.5s7.5 3.358 7.5 7.5v24.718c0 4.142-3.358 7.5-7.5 7.5z" fill="#30dde5"/></g><g><path d="m185.713 415.119c-4.142 0-7.5-3.358-7.5-7.5v-78.833c0-4.142 3.358-7.5 7.5-7.5s7.5 3.358 7.5 7.5v78.833c0 4.142-3.358 7.5-7.5 7.5z" fill="#02c7dd"/></g><g><path d="m320.038 400.379c-.833 0-1.68-.139-2.512-.431-3.908-1.374-5.947-5.697-4.574-9.604.294-.837 7.478-20.505 31.034-20.505h.32.318c8.481 0 17.21-.033 23.21-2.756 3.911-1.774 8.399-5.329 8.399-17.161 0-4.142 3.358-7.5 7.5-7.5s7.5 3.358 7.5 7.5c0 15.272-5.788 25.642-17.202 30.821-9.029 4.097-20.003 4.102-29.728 4.096h-.319c-12.539 0-16.502 9.481-16.913 10.563-1.078 3.075-3.952 4.977-7.033 4.977z" fill="#fe5ca7"/></g><g><path d="m392.422 444.995h-71.941c-4.142 0-7.5-3.358-7.5-7.5s3.358-7.5 7.5-7.5h71.941c4.142 0 7.5 3.358 7.5 7.5s-3.358 7.5-7.5 7.5z" fill="#30dde5"/></g><g><path d="m287.244 444.995h-111.266c-4.142 0-7.5-3.358-7.5-7.5s3.358-7.5 7.5-7.5h111.266c4.142 0 7.5 3.358 7.5 7.5s-3.358 7.5-7.5 7.5z" fill="#30dde5"/></g><g><circle cx="31.505" cy="114.541" fill="#02c7dd" r="7.379"/><g><path d="m96.596 122.041h-36.655c-4.142 0-7.5-3.358-7.5-7.5s3.358-7.5 7.5-7.5h36.654c4.142 0 7.5 3.358 7.5 7.5s-3.357 7.5-7.499 7.5z" fill="#edf5fa"/></g></g><g><circle cx="31.505" cy="158.247" fill="#02c7dd" r="7.379"/><g><path d="m96.596 165.747h-36.655c-4.142 0-7.5-3.358-7.5-7.5s3.358-7.5 7.5-7.5h36.654c4.142 0 7.5 3.358 7.5 7.5s-3.357 7.5-7.499 7.5z" fill="#edf5fa"/></g></g><g><circle cx="31.505" cy="201.952" fill="#02c7dd" r="7.379"/><g><path d="m96.596 209.452h-36.655c-4.142 0-7.5-3.358-7.5-7.5s3.358-7.5 7.5-7.5h36.654c4.142 0 7.5 3.358 7.5 7.5s-3.357 7.5-7.499 7.5z" fill="#edf5fa"/></g></g><g><circle cx="31.505" cy="245.657" fill="#02c7dd" r="7.379"/><g><path d="m96.596 253.157h-36.655c-4.142 0-7.5-3.358-7.5-7.5s3.358-7.5 7.5-7.5h36.654c4.142 0 7.5 3.358 7.5 7.5s-3.357 7.5-7.499 7.5z" fill="#edf5fa"/></g></g><g><circle cx="31.505" cy="371.362" fill="#02c7dd" r="7.379"/><g><path d="m96.596 378.862h-36.655c-4.142 0-7.5-3.358-7.5-7.5s3.358-7.5 7.5-7.5h36.654c4.142 0 7.5 3.358 7.5 7.5s-3.357 7.5-7.499 7.5z" fill="#edf5fa"/></g></g><g><path d="m211.613 122.041h-34.799c-4.142 0-7.5-3.358-7.5-7.5s3.358-7.5 7.5-7.5h34.799c4.142 0 7.5 3.358 7.5 7.5s-3.358 7.5-7.5 7.5z" fill="#30dde5"/></g><circle cx="214.698" cy="349.83" fill="#30dde5" r="7.379"/></symbol><symbol id="ecommerce" viewBox="0 0 497 497"><title>ecommerce</title><g><path d="m496.997 110.472v216.368c0 22.002-17.833 39.856-39.856 39.856h-308.813l-48.848-8.243-48.848 8.243h-10.776c-22.012 0-39.856-17.854-39.856-39.856v-216.368c0-21.086 17.098-38.174 38.174-38.174h420.649c21.086 0 38.174 17.088 38.174 38.174z" fill="#edf5fa"/><path d="m458.823 72.298h-22.938c21.086 0 38.174 17.088 38.174 38.174v216.368c0 22.002-17.833 39.856-39.856 39.856h22.938c22.022 0 39.856-17.854 39.856-39.856v-216.368c0-21.086-17.088-38.174-38.174-38.174z" fill="#d0e7f2"/></g><g><path d="m299.81 282.05c-4.143 0-7.5-3.357-7.5-7.5v-76.552c0-9.028-7.346-16.374-16.374-16.374h-57.375c-4.142 0-7.5-3.357-7.5-7.5s3.358-7.5 7.5-7.5h57.375c17.3 0 31.374 14.074 31.374 31.374v76.552c0 4.143-3.358 7.5-7.5 7.5z" fill="#017297"/></g><path d="m497 92.942v17.53h-497v-17.53c0-21.09 17.1-38.17 38.18-38.17h420.65c4.28 0 8.39.7 12.24 2 7.576 3.005 13.925 6.795 19.41 14.83 3.268 4.529 6.554 12.963 6.52 21.34z" fill="#30dde5"/><path d="m497 92.942v17.53h-22.94v-17.53c0-20.76-16.56-37.64-37.18-38.17-.33-.01-.66-.01-.99-.01h22.93c4.29 0 8.41.71 12.25 2.01 7.599 2.993 13.923 6.8 19.41 14.83 3.271 4.534 6.552 12.96 6.52 21.34z" fill="#02c7dd"/><g><path d="m464.015 322.832-110.676-8.177-110.676 8.177 15.893 98.811c1.909 11.869 12.152 20.596 24.173 20.596h141.221c12.021 0 22.264-8.727 24.173-20.596z" fill="#fe5ca7"/><path d="m441.676 322.832-15.893 98.811c-1.909 11.869-12.152 20.596-24.173 20.596h22.339c12.021 0 22.264-8.727 24.173-20.596l15.893-98.811z" fill="#fe3d97"/><path d="m476.838 322.832h-246.998c-11.134 0-20.16-9.026-20.16-20.16v-25.478c0-11.134 9.026-20.16 20.16-20.16h246.997c11.134 0 20.16 9.026 20.16 20.16v25.478c0 11.134-9.026 20.16-20.159 20.16z" fill="#f6c2e0"/><path d="m476.838 257.035h-22.339c11.134 0 20.16 9.026 20.16 20.16v25.478c0 11.134-9.026 20.16-20.16 20.16h22.339c11.134 0 20.16-9.026 20.16-20.16v-25.478c-.001-11.134-9.027-20.16-20.16-20.16z" fill="#f6a6d2"/><path d="m340.43 296.083-1.09-1.09c-6.677-6.677-6.677-17.502 0-24.179l93.788-93.788c6.677-6.677 17.502-6.677 24.179 0l1.09 1.09c6.677 6.677 6.677 17.502 0 24.179l-93.788 93.788c-6.677 6.677-17.502 6.677-24.179 0z" fill="#fe5ca7"/><path d="m458.4 178.112-1.09-1.09c-6.68-6.67-17.51-6.67-24.18 0l-1.22 1.22-6.215 6.216c3.742-3.742 10.293-1.667 10.96 3.583.643 5.066-.981 10.364-4.875 14.252l-86.355 86.355c-3.671 3.671-10.031 1.736-10.902-3.294.501 3.469 2.05 6.816 4.686 9.509l.13.13 1.09 1.09c6.68 6.68 17.5 6.68 24.18 0l93.79-93.79c6.671-6.671 6.671-17.501.001-24.181z" fill="#fe3d97"/></g><circle cx="209.681" cy="174.124" fill="#02c7dd" r="15.036"/><path d="m148.328 344.844v21.851h-97.696v-21.851c0-8.871 7.19-16.061 16.051-16.061h65.594c8.871 0 16.051 7.19 16.051 16.061z" fill="#30dde5"/><path d="m132.277 328.783h-23.249c8.871 0 16.051 7.19 16.051 16.061v21.851h23.249v-21.851c0-8.871-7.18-16.061-16.051-16.061z" fill="#02c7dd"/><path d="m148.75 203.522h-12.12c-4.26 0-7.71 3.45-7.71 7.71v38.29c0 4.25-3.45 7.71-7.71 7.71h-42.7c-4.26 0-7.71-3.46-7.71-7.71v-38.29c0-4.26-3.45-7.71-7.71-7.71h-12.12c-5.62 0-9.35-5.8-7.02-10.91l10.9-23.87c1.25-2.75 3.99-4.51 7.01-4.51h30.12l7.88 2.492 7.12-2.492h30.88c3.02 0 5.76 1.76 7.01 4.51l10.9 23.87c2.33 5.11-1.4 10.91-7.02 10.91z" fill="#bd80e1"/><path d="m155.767 192.614-10.895-23.871c-1.253-2.746-3.995-4.508-7.013-4.508h-20.848c3.019 0 5.76 1.762 7.013 4.508l10.895 23.871c2.33 5.105-1.401 10.91-7.013 10.91h-12.122c-4.258 0-7.709 3.452-7.709 7.709v38.285c0 4.258-3.452 7.709-7.709 7.709h20.848c4.258 0 7.709-3.452 7.709-7.709v-38.285c0-4.258 3.452-7.709 7.709-7.709h12.122c5.612 0 9.343-5.805 7.013-10.91z" fill="#af66da"/><g><g><path d="m304.23 412.437c-3.696 0-6.915-2.733-7.423-6.498l-7.465-55.308c-.554-4.104 2.324-7.882 6.43-8.436 4.103-.551 7.882 2.325 8.436 6.43l7.465 55.308c.554 4.104-2.324 7.882-6.43 8.436-.34.045-.679.068-1.013.068z" fill="#f6c2e0"/></g><g><path d="m401.784 412.437c-.335 0-.673-.022-1.013-.068-4.105-.554-6.983-4.331-6.43-8.436l7.465-55.308c.554-4.105 4.348-6.982 8.436-6.43 4.105.554 6.983 4.331 6.43 8.436l-7.465 55.308c-.508 3.764-3.727 6.498-7.423 6.498z" fill="#f6c2e0"/></g><g><path d="m354.172 412.436c-4.143 0-7.5-3.357-7.5-7.5v-55.308c0-4.143 3.357-7.5 7.5-7.5s7.5 3.357 7.5 7.5v55.308c0 4.142-3.358 7.5-7.5 7.5z" fill="#f6c2e0"/></g></g><g><path d="m86.105 90.722h-34.96c-4.142 0-7.5-3.357-7.5-7.5s3.358-7.5 7.5-7.5h34.96c4.142 0 7.5 3.357 7.5 7.5s-3.357 7.5-7.5 7.5z" fill="#02c7dd"/></g><circle cx="452.778" cy="83.636" fill="#af66da" r="7.43"/><circle cx="429.356" cy="83.636" fill="#02c7dd" r="7.43"/><g><path d="m106.98 164.232v19.21c0 4.14-3.36 7.5-7.5 7.5s-7.5-3.36-7.5-7.5v-19.21z" fill="#30dde5"/></g></symbol><symbol id="js" viewBox="0 0 469.333 469.333"><title>js</title><path d="M328.832,0H85.333C61.803,0,42.667,19.115,42.667,42.667v384c0,23.531,19.136,42.667,42.667,42.667H384 c23.531,0,42.667-19.136,42.667-42.667V97.856L328.832,0z M85.333,426.667v-384h213.333V128H384l0.021,298.667H85.333z"/><path d="M192,213.397v106.667c0,11.776-9.579,21.333-21.333,21.333s-21.333-9.557-21.333-21.333h-42.667 c0,35.307,28.715,64,64,64s64-28.693,64-64v-53.333v-53.333H192z"/><path d="M234.667,266.731c0,29.397,23.936,53.333,53.333,53.333h21.333c5.888,0,10.667,4.8,10.667,10.667 c0,5.867-4.779,10.667-10.667,10.667h-74.667v42.667h74.667c29.397,0,53.333-23.936,53.333-53.333 c0-29.419-23.936-53.333-53.333-53.333H288c-5.888,0-10.667-4.8-10.667-10.667c0-5.867,4.779-10.667,10.667-10.667h74.667 v-42.667H288C258.603,213.397,234.667,237.312,234.667,266.731z"/></symbol><symbol id="html" viewBox="-30 0 512 512"><title>html</title><path d="m0 0 31.800781 448.101562 194.398438 63.898438 194.398437-63.898438 31.800782-448.101562zm0 0" fill="#5db9f7"/><path d="m452.398438 0-31.800782 448.101562-194.398437 63.898438v-512zm0 0" fill="#2196F3"/><path d="m367.5 136h-222.300781l5.398437 75h211.503906l-12.902343 181.597656-123 41.101563-123-41.101563-4.199219-60.597656h60l1.199219 16.5 66 21.898438 66-21.898438 5.398437-77.5h-203.097656l-13.800781-195h291zm0 0" fill="#ececf1"/><g fill="#e2e2e7"><path d="m362.101562 211-12.902343 181.597656-123 41.101563v-63.300781l66-21.898438 5.398437-77.5h-71.398437v-60zm0 0"/><path d="m371.699219 76-4.199219 60h-141.300781v-60zm0 0"/></g></symbol><symbol id="css-3" viewBox="0 0 512 512"><title>css-3</title><polygon style="fill:#5db9f7;" points="32,0 72.8,460.8 256,512 439.136,460.832 480,0 "/><polygon style="fill:#FAFAFA;" points="392.768,150.688 387.616,208.576 372.064,382.112 256,414.208 255.904,414.24 139.904,382.112 131.808,291.36 188.64,291.36 192.864,338.432 255.936,355.456 255.968,355.424 319.136,338.4 327.744,259.968 129.088,260.512 123.456,206.88 332.512,204.416 336.736,147.008 117.856,147.616 114.176,94.208 256,94.208 397.824,94.208 "/></symbol><symbol id="physics" viewBox="-25 0 445 445.6"><title>physics</title><path d="m385.082031 102.800781c-16.601562-26-52.300781-36.800781-100.402343-30.601562-1.699219.199219-3.5.5-5.199219.699219-.699219-1.597657-1.398438-3.199219-2.199219-4.796876-20.699219-43.902343-49-68.101562-79.800781-68.101562s-59.199219 24.199219-79.800781 68.101562c-.699219 1.597657-1.5 3.199219-2.199219 4.796876-1.800781-.296876-3.5-.5-5.199219-.699219-48.199219-6.300781-83.800781 4.601562-100.402344 30.601562-16.597656 26-11.5 62.898438 14.300782 103.898438 3.402343 5.402343 7.101562 10.800781 11.101562 16.101562-4 5.398438-7.699219 10.699219-11.101562 16.097657-25.800782 41-30.898438 78-14.300782 103.902343 13.5 21.199219 39.703125 32.300781 75 32.300781 8.460938-.046874 16.910156-.613281 25.300782-1.703124 1.699218-.199219 3.5-.5 5.199218-.699219.703125 1.601562 1.402344 3.199219 2.203125 4.800781 20.699219 43.898438 49 68.101562 79.796875 68.101562 30.800782 0 59.203125-24.203124 79.800782-68.101562.699218-1.601562 1.5-3.199219 2.199218-4.800781 1.800782.300781 3.5.5 5.203125.699219 8.382813 1.136718 16.835938 1.703124 25.296875 1.703124 35.300782 0 61.5-11.101562 75-32.300781 16.601563-26 11.5-62.902343-14.296875-103.902343-3.402343-5.398438-7.101562-10.796876-11.101562-16.097657 4-5.402343 7.699219-10.699219 11.101562-16.101562 26.097657-41.097657 31.199219-78 14.5-103.898438zm-249.300781-26.199219c16.898438-36 39.398438-56.601562 61.699219-56.601562s44.800781 20.601562 61.699219 56.601562c.011718.074219.046874.144532.101562.199219-21.242188 5.109375-41.960938 12.171875-61.902344 21.097657-19.917968-8.96875-40.644531-16.035157-61.898437-21.097657.199219 0 .199219-.101562.300781-.199219zm151.800781 146.199219c.003907 16-.863281 31.992188-2.601562 47.898438-12.464844 10.058593-25.484375 19.40625-39 28-15.597657 10.015625-31.832031 19.003906-48.601563 26.902343-16.734375-7.960937-32.96875-16.945312-48.597656-26.902343-13.5-8.617188-26.519531-17.964844-39-28-3.46875-31.839844-3.46875-63.960938 0-95.800781 26.953125-21.660157 56.355469-40.085938 87.597656-54.898438 16.738282 7.957031 32.96875 16.941406 48.601563 26.898438 13.5 8.617187 26.519531 17.964843 39 28 1.738281 15.910156 2.605469 31.898437 2.601562 47.902343zm19.097657-29.101562c9.792968 9.121093 19.011718 18.839843 27.601562 29.101562-8.589844 10.257813-17.808594 19.976563-27.601562 29.097657.601562-9.597657.902343-19.296876.902343-29.097657s-.300781-19.5-.902343-29.101562zm-25.800782 105.402343c-3.15625 17.3125-7.738281 34.335938-13.699218 50.898438-15.53125-3.507812-30.773438-8.1875-45.597657-14 11.796875-6.199219 23.597657-13 35.296875-20.398438 8.203125-5.300781 16.203125-10.800781 24-16.5zm-107.5 36.898438c-14.796875 5.886719-30.046875 10.570312-45.597656 14-5.960938-16.5625-10.542969-33.585938-13.699219-50.898438 7.699219 5.699219 15.699219 11.199219 24 16.398438 11.699219 7.5 23.5 14.300781 35.296875 20.5zm-85.097656-84.101562c-9.792969-9.121094-19.007812-18.839844-27.601562-29.097657 8.59375-10.261719 17.808593-19.980469 27.601562-29.101562-.601562 9.601562-.902344 19.300781-.902344 29.101562s.300782 19.5.902344 29.097657zm25.800781-105.398438c3.15625-17.316406 7.738281-34.339844 13.699219-50.898438 15.53125 3.503907 30.777344 8.183594 45.597656 14-11.796875 6.199219-23.597656 13-35.296875 20.398438-8.203125 5.300781-16.203125 10.800781-24 16.5zm142.699219-16.5c-11.601562-7.398438-23.402344-14.300781-35.300781-20.398438 14.796875-5.886718 30.046875-10.570312 45.601562-14 5.957031 16.558594 10.539063 33.582032 13.699219 50.898438-7.699219-5.699219-15.699219-11.199219-24-16.5zm-215.699219 66c-21.203125-33.601562-26.402343-63.699219-14.402343-82.5 9.601562-15 30.402343-23.101562 58.5-23.101562 7.523437.03125 15.039062.535156 22.5 1.5h.199218c-8.089844 23.523437-13.71875 47.820312-16.796875 72.5-15.410156 12.855468-29.757812 26.9375-42.902343 42.101562-2.5-3.398438-4.898438-6.898438-7.097657-10.5zm66.5 157.601562c-7.460937.96875-14.976562 1.46875-22.5 1.5-28.101562 0-48.902343-8-58.5-23.101562-12-18.800781-6.800781-48.898438 14.398438-82.5 2.199219-3.5 4.601562-7.101562 7.101562-10.601562 13.140625 15.167968 27.488281 29.246093 42.898438 42.101562 3.082031 24.683594 8.710937 48.980469 16.800781 72.5 0 .101562-.101562.101562-.199219.101562zm151.597657 15.398438c-16.898438 36-39.398438 56.601562-61.699219 56.601562s-44.800781-20.601562-61.699219-56.601562c-.011719-.074219-.046875-.144531-.101562-.199219 21.242187-5.109375 41.960937-12.171875 61.902343-21.101562 19.917969 8.972656 40.644531 16.039062 61.898438 21.101562-.199219 0-.199219.097657-.300781.199219zm94.699218-119.398438c21.203125 33.597657 26.402344 63.699219 14.402344 82.5-12 18.796876-41.5 26.699219-80.902344 21.5h-.199218c8.089843-23.523437 13.722656-47.820312 16.800781-72.5 15.410156-12.855468 29.757812-26.9375 42.898437-42.101562 2.402344 3.5 4.800782 7 7 10.601562zm-50-85.101562c-3.078125-24.683594-8.707031-48.980469-16.796875-72.5h.199219c39.398438-5.101562 68.898438 2.699219 80.898438 21.5s6.800781 48.898438-14.398438 82.5c-2.199219 3.5-4.601562 7.101562-7.101562 10.601562-13.082032-15.191406-27.398438-29.273437-42.800782-42.101562zm0 0"/><path d="m197.480469 183.199219c-21.871094 0-39.601563 17.730469-39.601563 39.601562 0 21.871094 17.730469 39.597657 39.601563 39.597657 21.871093 0 39.601562-17.726563 39.601562-39.597657-.015625-21.867187-17.738281-39.585937-39.601562-39.601562zm0 59.199219c-10.824219 0-19.601563-8.773438-19.601563-19.597657s8.777344-19.601562 19.601563-19.601562 19.601562 8.777343 19.601562 19.601562c-.019531 10.816407-8.785156 19.582031-19.601562 19.597657zm0 0"/></symbol><symbol id="sass" viewBox="0 0 512 512"><title>sass</title><path style="fill:#fff;" d="M512,256c0,7.91-0.355,15.726-1.066,23.448c-0.543,6.113-1.317,12.152-2.299,18.119 C488.782,419.182,383.227,512,256,512c-64.805,0-123.977-24.074-169.075-63.781c-16.666-14.66-31.41-31.462-43.802-49.977 C15.882,357.564,0,308.632,0,256C0,114.615,114.615,0,256,0S512,114.615,512,256z"/><path style="fill:#5db9f7;" d="M446.767,284.975c-7.764,2.936-7.45,2.988-11.557-4.493c-5.245-9.529-8.035-19.55-8.276-30.448 c-0.199-9.352,2.361-18.045,5.58-26.572c2.57-6.781-0.773-9.174-6.646-9.791c-4.274-0.439-8.683-0.397-12.967,0.042 c-11.139,1.139-12.236,2.1-15.193,12.915c-1.755,6.416-3.156,12.884-6.071,18.975c-7.189,14.994-15.36,29.435-23.74,43.771 c-1.505,2.581-2.748,5.36-4.869,7.565c-6.071-9.091-8.359-19.132-8.871-29.665c-0.512-10.397,2.675-20.062,6.175-29.623 c1.181-3.218,0.199-5.214-2.581-6.604c-1.233-0.616-2.612-1.191-3.96-1.296c-7.147-0.564-14.273-0.481-21.243,1.473 c-3.135,0.867-5.183,2.623-5.883,6.144c-1.358,6.886-3.479,13.573-6.343,20.01c-7.941,17.826-15.83,35.683-23.761,53.52 c-6.896,15.496-13.688,31.033-21.859,45.913c-0.575,1.055-1.055,2.884-2.497,2.518c-1.463-0.366-0.951-2.163-1.014-3.396 c-0.47-8.777,1.923-17.147,3.96-25.527c3.229-13.26,6.76-26.457,10.188-39.675c0.982-3.793-0.669-6.343-3.814-8.161 c-4.524-2.602-9.028-2.727-13.928,0.919c0.669-5.392,0.961-10.125,0.731-14.858c-0.522-10.553-5.413-17.418-13.928-19.007 c-6.217-1.16-12.1,0.648-17.659,3.281c-12.957,6.134-23.374,15.381-32.131,26.603c-1.024,1.306-2.058,2.508-3.542,3.312 c-16.436,8.955-32.862,17.91-49.256,26.948c-1.797,1.003-2.957,0.721-4.253-0.669c-8.255-8.85-17.836-16.154-27.324-23.562 c-13.26-10.365-26.979-20.187-38.421-32.684c-6.687-7.314-12.267-15.329-15.057-25.004c-4.556-15.82-1.149-30.553,6.437-44.554 c8.976-16.562,22.288-29.351,36.968-40.741c23.312-18.077,48.88-32.434,75.828-44.251c30.177-13.218,61.482-21.734,94.824-20.449 c13.208,0.512,26.028,2.8,37.794,9.268c8.328,4.577,13.845,11.191,15.402,20.898c1.829,11.368-0.899,21.87-5.945,31.828 c-11.274,22.246-29.194,38.003-50.375,50.343c-17.638,10.271-36.665,16.792-56.801,20.208c-11.128,1.891-22.298,3.03-33.489,1.327 c-12.842-1.954-24.712-6.248-33.499-16.593c-1.014-1.191-2.299-2.017-4.023-1.181c-1.766,0.857-1.63,2.424-1.463,3.929 c0.125,1.034,0.408,2.079,0.773,3.062c2.351,6.343,6.75,11.128,11.901,15.308c13.396,10.898,29.268,14.096,45.934,14.42 c16.311,0.324,32.371-1.745,48.264-5.548c35.85-8.568,65.881-26.154,87.803-56.289c13.103-18.014,21.4-37.867,20.668-60.583 c-0.47-14.409-5.319-27.136-15.82-37.48c-12.487-12.278-27.982-18.453-44.607-22.162c-18.516-4.117-37.219-4.702-56.111-2.445 c-16.436,1.964-32.496,5.329-48.128,10.71c-23.918,8.244-47.02,18.369-69.13,30.678c-22.653,12.601-44.001,27.032-62.725,45.108 c-16.572,15.997-30.814,33.646-38.839,55.557c-3.427,9.383-5.893,19.028-3.594,29.174c2.947,13.061,9.383,24.367,17.847,34.565 c12.8,15.444,28.505,27.606,44.701,39.225c13.009,9.341,26.624,17.847,39.121,27.888c3.542,2.842,3.521,2.842-0.648,5.026 c-4.869,2.539-9.791,4.984-14.576,7.69C91.951,342.695,73.3,354.523,58.075,370.96c-7.492,8.098-12.581,17.189-14.952,27.282 c12.392,18.516,27.136,35.318,43.802,49.977c28.432-2.215,50.197-17.011,66.278-41.482c7.764-11.818,11.4-25.192,12.769-39.299 c1.202-12.434-0.063-24.472-3.72-36.342c-0.637-2.09-3.009-4.169-2.079-6.008c0.867-1.693,3.48-2.55,5.402-3.657 c7.753-4.504,15.527-8.944,23.51-13.531c0.345,1.714-0.324,2.717-0.616,3.803c-4.577,16.792-7.764,33.719-4.284,51.169 c2.163,10.867,5.768,21.096,12.622,30.093c7.053,9.258,22.8,8.202,29.194-0.251c6.071-8.025,10.094-17.074,14.284-26.081 c2.299-4.932,4.409-9.947,6.604-14.932c-0.408,5.998-0.387,11.849-0.167,17.68c0.219,5.747,1.139,11.421,4.127,16.499 c3.594,6.102,10.355,7.879,16.635,4.618c6.625-3.438,11.139-9.101,14.649-15.245c15.057-26.425,29.027-53.415,40.594-81.596 c2.466-5.987,4.995-11.964,7.785-18.62c0.428,2.184,0.711,3.521,0.972,4.859c2.57,13.427,7.147,26.133,13.772,38.076 c1.421,2.56,1.264,4.326-0.533,6.781c-6.102,8.307-12.79,16.123-19.383,24.022c-5.538,6.646-11.463,12.999-16.144,20.313 c-4.2,6.583-1.787,13.322,5.204,14.817c2.152,0.46,4.42,0.596,6.625,0.564c12.215-0.146,23.489-3.793,33.991-9.77 c14.137-8.056,22.518-19.864,22.131-36.676c-0.178-7.649-2.247-14.994-5.329-22.006c-0.679-1.557-0.711-2.685,0.303-4.148 c9.791-14.023,18.442-28.724,26.394-43.854c1.411-2.664,2.403-5.622,4.681-8.223c0.303,1.055,0.543,1.714,0.679,2.393 c2.529,12.539,5.935,24.795,12.33,35.986c1.755,3.062,0.878,4.618-1.546,6.666c-8.349,7.095-15.391,15.37-20.919,24.848 c-4.305,7.377-7.252,15.255-7.22,23.897c0.031,9.613,7.387,15.276,16.76,13.019c9.77-2.341,18.829-6.322,26.958-12.267 c17.711-12.967,22.904-26.645,17.356-45.735c-2.173-7.513-2.132-7.387,5.402-9.665c16.478-4.974,33.196-5.183,49.998-2.445 c1.902,0.313,3.783,0.669,5.642,1.076c0.982-5.966,1.755-12.006,2.299-18.119C489.441,274.192,467.978,276.919,446.767,284.975z M98.586,419.401c-4.775,1.693-9.738,2.414-14.817,2.017c-6.322-0.502-10.334-4.963-10.742-11.672 c-0.46-7.732,1.829-14.712,5.214-21.504c6.154-12.33,16.488-20.699,27.032-28.912c10.25-7.993,21.264-14.817,32.402-21.452 c3.375-2.006,3.427-1.985,4.2,2.038c1.003,5.162,1.902,10.334,1.567,15.026C144.321,383.08,123.883,410.446,98.586,419.401z M251.956,277.514c-1.776,11.86-5.653,23.155-9.78,34.314c-5.622,15.235-11.097,30.542-18.171,45.192 c-1.62,3.375-3.323,6.729-5.945,9.477c-2.476,2.602-4.671,2.299-6.384-0.878c-3.344-6.207-2.926-13.113-3.469-18.129 c0.157-25.161,8.6-45.725,22.507-64.209c3.887-5.151,8.85-9.341,15.423-11.024C250.598,271.12,252.656,272.917,251.956,277.514z M349.341,352.005c-4.765,8.234-11.63,14.221-20.052,18.484c-0.899,0.449-2.058,1.243-2.873,0.188 c-0.773-0.993,0.47-1.651,1.034-2.278c8.37-9.143,16.635-18.359,24.085-28.275c0.115-0.157,0.397-0.178,1.034-0.449 C352.496,344.263,351.493,348.296,349.341,352.005z M407.134,351.65c-1.243,0.585-2.685,1.682-3.897,0.742 c-1.337-1.034-0.805-2.863-0.397-4.263c1.902-6.384,4.462-12.497,7.993-18.192c2.967-4.796,6.646-8.986,10.689-12.894 c1.63-1.567,2.361-1.379,2.915,0.878c0.575,2.309,0.627,4.618,0.669,6.969C425.002,337.753,418.471,346.311,407.134,351.65z"/></symbol><symbol id="js-1" viewBox="0 0 512 512"><title>js-1</title><polygon style="fill:#5db9f7;" points="0,512 512,512 512,0 0,0 "/><g> <path style="fill:#FFFFFF;" d="M397.241,476.69c-43.811,0-79.448-35.646-79.448-79.448c0-4.873,3.946-8.828,8.828-8.828 c4.882,0,8.828,3.955,8.828,8.828c0,34.074,27.727,61.793,61.793,61.793s61.793-27.719,61.793-61.793 s-27.727-61.793-61.793-61.793c-43.811,0-79.448-35.646-79.448-79.448s35.637-79.448,79.448-79.448S476.69,212.198,476.69,256 c0,4.873-3.946,8.828-8.828,8.828c-4.882,0-8.828-3.955-8.828-8.828c0-34.074-27.727-61.793-61.793-61.793 S335.448,221.926,335.448,256s27.727,61.793,61.793,61.793c43.811,0,79.448,35.646,79.448,79.448S441.053,476.69,397.241,476.69"/> <path style="fill:#FFFFFF;" d="M211.862,476.69c-43.811,0-79.448-35.646-79.448-79.448c0-4.873,3.946-8.828,8.828-8.828 s8.828,3.955,8.828,8.828c0,34.074,27.727,61.793,61.793,61.793s61.793-27.719,61.793-61.793V185.379 c0-4.873,3.946-8.828,8.828-8.828s8.828,3.955,8.828,8.828v211.862C291.31,441.044,255.673,476.69,211.862,476.69"/> </g></symbol></svg>